<?xml version="1.0" encoding="utf-8"?><svg xmlns="http://www.w3.org/2000/svg" width="1327" height="977"><g id="[object Object]"><polygon points="329.0415409156542,208.06481481481478,344.7101857211615,199.0185185185185,360.3788305266688,208.06481481481478,360.3788305266688,226.1574074074074,344.7101857211615,235.20370370370367,329.0415409156542,226.1574074074074,329.0415409156542,208.06481481481478" fill="rgb(112, 245, 238)"/></g><g id="[object Object]"><polygon points="313.3728961101468,180.9259259259259,329.0415409156542,171.87962962962962,344.71018572116157,180.9259259259259,344.71018572116157,199.0185185185185,329.0415409156542,208.06481481481478,313.3728961101468,199.0185185185185,313.3728961101468,180.9259259259259" fill="rgb(112, 245, 231)"/></g><g id="[object Object]"><polygon points="329.0415409156542,262.34259259259255,344.7101857211615,253.29629629629628,360.3788305266688,262.34259259259255,360.3788305266688,280.43518518518516,344.7101857211615,289.48148148148147,329.0415409156542,280.43518518518516,329.0415409156542,262.34259259259255" fill="rgb(112, 245, 224)"/></g><g id="[object Object]"><polygon points="344.71018572116145,235.2037037037037,360.3788305266688,226.15740740740742,376.0474753321762,235.2037037037037,376.0474753321762,253.2962962962963,360.3788305266688,262.3425925925926,344.71018572116145,253.2962962962963,344.71018572116145,235.2037037037037" fill="rgb(112, 245, 217)"/></g><g id="[object Object]"><polygon points="360.3788305266688,208.06481481481478,376.0474753321762,199.0185185185185,391.71612013768356,208.06481481481478,391.71612013768356,226.1574074074074,376.0474753321762,235.20370370370367,360.3788305266688,226.1574074074074,360.3788305266688,208.06481481481478" fill="rgb(112, 245, 209)"/></g><g id="[object Object]"><polygon points="391.71612013768356,208.06481481481478,407.3847649431909,199.0185185185185,423.0534097486982,208.06481481481478,423.0534097486982,226.1574074074074,407.3847649431909,235.20370370370367,391.71612013768356,226.1574074074074,391.71612013768356,208.06481481481478" fill="rgb(112, 245, 202)"/></g><g id="[object Object]"><polygon points="360.3788305266688,262.34259259259255,376.0474753321762,253.29629629629628,391.71612013768356,262.34259259259255,391.71612013768356,280.43518518518516,376.0474753321762,289.48148148148147,360.3788305266688,280.43518518518516,360.3788305266688,262.34259259259255" fill="rgb(112, 245, 195)"/></g><g id="[object Object]"><polygon points="376.0474753321762,235.2037037037037,391.71612013768356,226.15740740740742,407.38476494319093,235.2037037037037,407.38476494319093,253.2962962962963,391.71612013768356,262.3425925925926,376.0474753321762,253.2962962962963,376.0474753321762,235.2037037037037" fill="rgb(112, 245, 188)"/></g><g id="[object Object]"><polygon points="407.3847649431908,235.2037037037037,423.0534097486982,226.15740740740742,438.72205455420556,235.2037037037037,438.72205455420556,253.2962962962963,423.0534097486982,262.3425925925926,407.3847649431908,253.2962962962963,407.3847649431908,235.2037037037037" fill="rgb(112, 245, 181)"/></g><g id="[object Object]"><polygon points="438.72205455420556,289.48148148148147,454.3906993597129,280.43518518518516,470.0593441652203,289.48148148148147,470.0593441652203,307.5740740740741,454.3906993597129,316.6203703703704,438.72205455420556,307.5740740740741,438.72205455420556,289.48148148148147" fill="rgb(112, 245, 174)"/></g><g id="[object Object]"><polygon points="423.0534097486982,262.34259259259255,438.72205455420556,253.29629629629628,454.3906993597129,262.34259259259255,454.3906993597129,280.43518518518516,438.72205455420556,289.48148148148147,423.0534097486982,280.43518518518516,423.0534097486982,262.34259259259255" fill="rgb(112, 245, 167)"/></g><g id="[object Object]"><polygon points="470.0593441652202,289.48148148148147,485.72798897072755,280.43518518518516,501.3966337762349,289.48148148148147,501.3966337762349,307.5740740740741,485.72798897072755,316.6203703703704,470.0593441652202,307.5740740740741,470.0593441652202,289.48148148148147" fill="rgb(112, 245, 159)"/></g><g id="[object Object]"><polygon points="501.3966337762349,289.48148148148147,517.0652785817423,280.43518518518516,532.7339233872497,289.48148148148147,532.7339233872497,307.5740740740741,517.0652785817423,316.6203703703704,501.3966337762349,307.5740740740741,501.3966337762349,289.48148148148147" fill="rgb(112, 245, 152)"/></g><g id="[object Object]"><polygon points="548.4025681927569,262.34259259259255,564.0712129982643,253.29629629629628,579.7398578037717,262.34259259259255,579.7398578037717,280.43518518518516,564.0712129982643,289.48148148148147,548.4025681927569,280.43518518518516,548.4025681927569,262.34259259259255" fill="rgb(112, 245, 145)"/></g><g id="[object Object]"><polygon points="579.7398578037715,262.34259259259255,595.4085026092789,253.29629629629628,611.0771474147863,262.34259259259255,611.0771474147863,280.43518518518516,595.4085026092789,289.48148148148147,579.7398578037715,280.43518518518516,579.7398578037715,262.34259259259255" fill="rgb(112, 245, 138)"/></g><g id="[object Object]"><polygon points="626.7457922202937,235.2037037037037,642.414437025801,226.15740740740742,658.0830818313084,235.2037037037037,658.0830818313084,253.2962962962963,642.414437025801,262.3425925925926,626.7457922202937,253.2962962962963,626.7457922202937,235.2037037037037" fill="rgb(112, 245, 131)"/></g><g id="[object Object]"><polygon points="532.7339233872495,289.48148148148147,548.4025681927569,280.43518518518516,564.0712129982643,289.48148148148147,564.0712129982643,307.5740740740741,548.4025681927569,316.6203703703704,532.7339233872495,307.5740740740741,532.7339233872495,289.48148148148147" fill="rgb(112, 245, 124)"/></g><g id="[object Object]"><polygon points="407.3847649431908,343.75925925925924,423.0534097486982,334.71296296296293,438.72205455420556,343.75925925925924,438.72205455420556,361.85185185185185,423.0534097486982,370.89814814814815,407.3847649431908,361.85185185185185,407.3847649431908,343.75925925925924" fill="rgb(112, 245, 117)"/></g><g id="[object Object]"><polygon points="391.71612013768356,316.6203703703703,407.3847649431909,307.574074074074,423.0534097486982,316.6203703703703,423.0534097486982,334.71296296296293,407.3847649431909,343.75925925925924,391.71612013768356,334.71296296296293,391.71612013768356,316.6203703703703" fill="rgb(114, 245, 112)"/></g><g id="[object Object]"><polygon points="376.0474753321762,289.48148148148147,391.71612013768356,280.43518518518516,407.38476494319093,289.48148148148147,407.38476494319093,307.5740740740741,391.71612013768356,316.6203703703704,376.0474753321762,307.5740740740741,376.0474753321762,289.48148148148147" fill="rgb(121, 245, 112)"/></g><g id="[object Object]"><polygon points="391.71612013768356,262.34259259259255,407.3847649431909,253.29629629629628,423.0534097486982,262.34259259259255,423.0534097486982,280.43518518518516,407.3847649431909,289.48148148148147,391.71612013768356,280.43518518518516,391.71612013768356,262.34259259259255" fill="rgb(129, 245, 112)"/></g><g id="[object Object]"><polygon points="407.3847649431908,289.48148148148147,423.0534097486982,280.43518518518516,438.72205455420556,289.48148148148147,438.72205455420556,307.5740740740741,423.0534097486982,316.6203703703704,407.3847649431908,307.5740740740741,407.3847649431908,289.48148148148147" fill="rgb(136, 245, 112)"/></g><g id="[object Object]"><polygon points="423.0534097486982,316.6203703703703,438.72205455420556,307.574074074074,454.3906993597129,316.6203703703703,454.3906993597129,334.71296296296293,438.72205455420556,343.75925925925924,423.0534097486982,334.71296296296293,423.0534097486982,316.6203703703703" fill="rgb(143, 245, 112)"/></g><g id="[object Object]"><polygon points="266.36696169362483,316.6203703703703,282.03560649913214,307.574074074074,297.70425130463946,316.6203703703703,297.70425130463946,334.71296296296293,282.03560649913214,343.75925925925924,266.36696169362483,334.71296296296293,266.36696169362483,316.6203703703703" fill="rgb(150, 245, 112)"/></g><g id="[object Object]"><polygon points="282.0356064991321,343.75925925925924,297.70425130463946,334.71296296296293,313.3728961101468,343.75925925925924,313.3728961101468,361.85185185185185,297.70425130463946,370.89814814814815,282.0356064991321,361.85185185185185,282.0356064991321,343.75925925925924" fill="rgb(157, 245, 112)"/></g><g id="[object Object]"><polygon points="282.0356064991321,289.48148148148147,297.70425130463946,280.43518518518516,313.3728961101468,289.48148148148147,313.3728961101468,307.5740740740741,297.70425130463946,316.6203703703704,282.0356064991321,307.5740740740741,282.0356064991321,289.48148148148147" fill="rgb(164, 245, 112)"/></g><g id="[object Object]"><polygon points="297.70425130463946,316.6203703703703,313.3728961101468,307.574074074074,329.0415409156542,316.6203703703703,329.0415409156542,334.71296296296293,313.3728961101468,343.75925925925924,297.70425130463946,334.71296296296293,297.70425130463946,316.6203703703703" fill="rgb(171, 245, 112)"/></g><g id="[object Object]"><polygon points="329.0415409156542,316.6203703703703,344.7101857211615,307.574074074074,360.3788305266688,316.6203703703703,360.3788305266688,334.71296296296293,344.7101857211615,343.75925925925924,329.0415409156542,334.71296296296293,329.0415409156542,316.6203703703703" fill="rgb(179, 245, 112)"/></g><g id="[object Object]"><polygon points="344.71018572116145,289.48148148148147,360.3788305266688,280.43518518518516,376.0474753321762,289.48148148148147,376.0474753321762,307.5740740740741,360.3788305266688,316.6203703703704,344.71018572116145,307.5740740740741,344.71018572116145,289.48148148148147" fill="rgb(186, 245, 112)"/></g><g id="[object Object]"><polygon points="360.3788305266688,316.6203703703703,376.0474753321762,307.574074074074,391.71612013768356,316.6203703703703,391.71612013768356,334.71296296296293,376.0474753321762,343.75925925925924,360.3788305266688,334.71296296296293,360.3788305266688,316.6203703703703" fill="rgb(193, 245, 112)"/></g><g id="[object Object]"><polygon points="297.70425130463946,370.8981481481481,313.3728961101468,361.8518518518518,329.0415409156542,370.8981481481481,329.0415409156542,388.9907407407407,313.3728961101468,398.037037037037,297.70425130463946,388.9907407407407,297.70425130463946,370.8981481481481" fill="rgb(200, 245, 112)"/></g><g id="[object Object]"><polygon points="313.3728961101468,343.75925925925924,329.0415409156542,334.71296296296293,344.71018572116157,343.75925925925924,344.71018572116157,361.85185185185185,329.0415409156542,370.89814814814815,313.3728961101468,361.85185185185185,313.3728961101468,343.75925925925924" fill="rgb(207, 245, 112)"/></g><g id="[object Object]"><polygon points="360.3788305266688,370.8981481481481,376.0474753321762,361.8518518518518,391.71612013768356,370.8981481481481,391.71612013768356,388.9907407407407,376.0474753321762,398.037037037037,360.3788305266688,388.9907407407407,360.3788305266688,370.8981481481481" fill="rgb(214, 245, 112)"/></g><g id="[object Object]"><polygon points="391.71612013768356,370.8981481481481,407.3847649431909,361.8518518518518,423.0534097486982,370.8981481481481,423.0534097486982,388.9907407407407,407.3847649431909,398.037037037037,391.71612013768356,388.9907407407407,391.71612013768356,370.8981481481481" fill="rgb(221, 245, 112)"/></g><g id="[object Object]"><polygon points="423.0534097486982,370.8981481481481,438.72205455420556,361.8518518518518,454.3906993597129,370.8981481481481,454.3906993597129,388.9907407407407,438.72205455420556,398.037037037037,423.0534097486982,388.9907407407407,423.0534097486982,370.8981481481481" fill="rgb(228, 245, 112)"/></g><g id="[object Object]"><polygon points="438.72205455420556,343.75925925925924,454.3906993597129,334.71296296296293,470.0593441652203,343.75925925925924,470.0593441652203,361.85185185185185,454.3906993597129,370.89814814814815,438.72205455420556,361.85185185185185,438.72205455420556,343.75925925925924" fill="rgb(236, 245, 112)"/></g><g id="[object Object]"><polygon points="454.3906993597129,316.6203703703703,470.05934416522024,307.574074074074,485.72798897072755,316.6203703703703,485.72798897072755,334.71296296296293,470.05934416522024,343.75925925925924,454.3906993597129,334.71296296296293,454.3906993597129,316.6203703703703" fill="rgb(243, 245, 112)"/></g><g id="[object Object]"><polygon points="329.0415409156542,370.8981481481481,344.7101857211615,361.8518518518518,360.3788305266688,370.8981481481481,360.3788305266688,388.9907407407407,344.7101857211615,398.037037037037,329.0415409156542,388.9907407407407,329.0415409156542,370.8981481481481" fill="rgb(245, 240, 112)"/></g><g id="[object Object]"><polygon points="344.71018572116145,398.037037037037,360.3788305266688,388.9907407407407,376.0474753321762,398.037037037037,376.0474753321762,416.1296296296296,360.3788305266688,425.1759259259259,344.71018572116145,416.1296296296296,344.71018572116145,398.037037037037" fill="rgb(245, 233, 112)"/></g><g id="[object Object]"><polygon points="407.3847649431908,398.037037037037,423.0534097486982,388.9907407407407,438.72205455420556,398.037037037037,438.72205455420556,416.1296296296296,423.0534097486982,425.1759259259259,407.3847649431908,416.1296296296296,407.3847649431908,398.037037037037" fill="rgb(245, 226, 112)"/></g><g id="[object Object]"><polygon points="454.3906993597129,370.8981481481481,470.05934416522024,361.8518518518518,485.72798897072755,370.8981481481481,485.72798897072755,388.9907407407407,470.05934416522024,398.037037037037,454.3906993597129,388.9907407407407,454.3906993597129,370.8981481481481" fill="rgb(245, 219, 112)"/></g><g id="[object Object]"><polygon points="470.0593441652202,343.75925925925924,485.72798897072755,334.71296296296293,501.3966337762349,343.75925925925924,501.3966337762349,361.85185185185185,485.72798897072755,370.89814814814815,470.0593441652202,361.85185185185185,470.0593441652202,343.75925925925924" fill="rgb(245, 212, 112)"/></g><g id="[object Object]"><polygon points="485.72798897072755,370.8981481481481,501.3966337762349,361.8518518518518,517.0652785817423,370.8981481481481,517.0652785817423,388.9907407407407,501.3966337762349,398.037037037037,485.72798897072755,388.9907407407407,485.72798897072755,370.8981481481481" fill="rgb(245, 205, 112)"/></g><g id="[object Object]"><polygon points="501.3966337762349,343.75925925925924,517.0652785817423,334.71296296296293,532.7339233872497,343.75925925925924,532.7339233872497,361.85185185185185,517.0652785817423,370.89814814814815,501.3966337762349,361.85185185185185,501.3966337762349,343.75925925925924" fill="rgb(245, 198, 112)"/></g><g id="[object Object]"><polygon points="517.0652785817423,370.8981481481481,532.7339233872497,361.8518518518518,548.402568192757,370.8981481481481,548.402568192757,388.9907407407407,532.7339233872497,398.037037037037,517.0652785817423,388.9907407407407,517.0652785817423,370.8981481481481" fill="rgb(245, 190, 112)"/></g><g id="[object Object]"><polygon points="407.3847649431908,452.3148148148148,423.0534097486982,443.2685185185185,438.72205455420556,452.3148148148148,438.72205455420556,470.4074074074074,423.0534097486982,479.4537037037037,407.3847649431908,470.4074074074074,407.3847649431908,452.3148148148148" fill="rgb(245, 183, 112)"/></g><g id="[object Object]"><polygon points="438.72205455420556,398.037037037037,454.3906993597129,388.9907407407407,470.0593441652203,398.037037037037,470.0593441652203,416.1296296296296,454.3906993597129,425.1759259259259,438.72205455420556,416.1296296296296,438.72205455420556,398.037037037037" fill="rgb(245, 176, 112)"/></g><g id="[object Object]"><polygon points="438.72205455420556,452.3148148148148,454.3906993597129,443.2685185185185,470.0593441652203,452.3148148148148,470.0593441652203,470.4074074074074,454.3906993597129,479.4537037037037,438.72205455420556,470.4074074074074,438.72205455420556,452.3148148148148" fill="rgb(245, 169, 112)"/></g><g id="[object Object]"><polygon points="485.72798897072755,425.17592592592587,501.3966337762349,416.12962962962956,517.0652785817423,425.17592592592587,517.0652785817423,443.2685185185185,501.3966337762349,452.3148148148148,485.72798897072755,443.2685185185185,485.72798897072755,425.17592592592587" fill="rgb(245, 162, 112)"/></g><g id="[object Object]"><polygon points="423.0534097486982,425.17592592592587,438.72205455420556,416.12962962962956,454.3906993597129,425.17592592592587,454.3906993597129,443.2685185185185,438.72205455420556,452.3148148148148,423.0534097486982,443.2685185185185,423.0534097486982,425.17592592592587" fill="rgb(245, 155, 112)"/></g><g id="[object Object]"><polygon points="470.0593441652202,398.037037037037,485.72798897072755,388.9907407407407,501.3966337762349,398.037037037037,501.3966337762349,416.1296296296296,485.72798897072755,425.1759259259259,470.0593441652202,416.1296296296296,470.0593441652202,398.037037037037" fill="rgb(245, 148, 112)"/></g><g id="[object Object]"><polygon points="454.3906993597129,425.17592592592587,470.05934416522024,416.12962962962956,485.72798897072755,425.17592592592587,485.72798897072755,443.2685185185185,470.05934416522024,452.3148148148148,454.3906993597129,443.2685185185185,454.3906993597129,425.17592592592587" fill="rgb(245, 140, 112)"/></g><g id="[object Object]"><polygon points="470.0593441652202,452.3148148148148,485.72798897072755,443.2685185185185,501.3966337762349,452.3148148148148,501.3966337762349,470.4074074074074,485.72798897072755,479.4537037037037,470.0593441652202,470.4074074074074,470.0593441652202,452.3148148148148" fill="rgb(245, 133, 112)"/></g><g id="[object Object]"><polygon points="344.71018572116145,343.75925925925924,360.3788305266688,334.71296296296293,376.0474753321762,343.75925925925924,376.0474753321762,361.85185185185185,360.3788305266688,370.89814814814815,344.71018572116145,361.85185185185185,344.71018572116145,343.75925925925924" fill="rgb(245, 126, 112)"/></g><g id="[object Object]"><polygon points="376.0474753321762,343.75925925925924,391.71612013768356,334.71296296296293,407.38476494319093,343.75925925925924,407.38476494319093,361.85185185185185,391.71612013768356,370.89814814814815,376.0474753321762,361.85185185185185,376.0474753321762,343.75925925925924" fill="rgb(245, 119, 112)"/></g><g id="[object Object]"><polygon points="517.0652785817423,316.6203703703703,532.7339233872497,307.574074074074,548.402568192757,316.6203703703703,548.402568192757,334.71296296296293,532.7339233872497,343.75925925925924,517.0652785817423,334.71296296296293,517.0652785817423,316.6203703703703" fill="rgb(112, 245, 245)"/></g><g id="[object Object]"><polygon points="642.414437025801,262.34259259259255,658.0830818313084,253.29629629629628,673.7517266368158,262.34259259259255,673.7517266368158,280.43518518518516,658.0830818313084,289.48148148148147,642.414437025801,280.43518518518516,642.414437025801,262.34259259259255" fill="rgb(112, 245, 238)"/></g><g id="[object Object]"><polygon points="564.0712129982643,343.75925925925924,579.7398578037717,334.71296296296293,595.408502609279,343.75925925925924,595.408502609279,361.85185185185185,579.7398578037717,370.89814814814815,564.0712129982643,361.85185185185185,564.0712129982643,343.75925925925924" fill="rgb(112, 245, 231)"/></g><g id="[object Object]"><polygon points="658.0830818313083,289.48148148148147,673.7517266368156,280.43518518518516,689.420371442323,289.48148148148147,689.420371442323,307.5740740740741,673.7517266368156,316.6203703703704,658.0830818313083,307.5740740740741,658.0830818313083,289.48148148148147" fill="rgb(112, 245, 224)"/></g><g id="[object Object]"><polygon points="579.7398578037715,370.8981481481481,595.4085026092789,361.8518518518518,611.0771474147863,370.8981481481481,611.0771474147863,388.9907407407407,595.4085026092789,398.037037037037,579.7398578037715,388.9907407407407,579.7398578037715,370.8981481481481" fill="rgb(112, 245, 217)"/></g><g id="[object Object]"><polygon points="611.0771474147863,370.8981481481481,626.7457922202937,361.8518518518518,642.414437025801,370.8981481481481,642.414437025801,388.9907407407407,626.7457922202937,398.037037037037,611.0771474147863,388.9907407407407,611.0771474147863,370.8981481481481" fill="rgb(112, 245, 209)"/></g><g id="[object Object]"><polygon points="595.4085026092789,398.037037037037,611.0771474147863,388.9907407407407,626.7457922202937,398.037037037037,626.7457922202937,416.1296296296296,611.0771474147863,425.1759259259259,595.4085026092789,416.1296296296296,595.4085026092789,398.037037037037" fill="rgb(112, 245, 202)"/></g><g id="[object Object]"><polygon points="626.7457922202937,398.037037037037,642.414437025801,388.9907407407407,658.0830818313084,398.037037037037,658.0830818313084,416.1296296296296,642.414437025801,425.1759259259259,626.7457922202937,416.1296296296296,626.7457922202937,398.037037037037" fill="rgb(112, 245, 195)"/></g><g id="[object Object]"><polygon points="642.414437025801,425.17592592592587,658.0830818313084,416.12962962962956,673.7517266368158,425.17592592592587,673.7517266368158,443.2685185185185,658.0830818313084,452.3148148148148,642.414437025801,443.2685185185185,642.414437025801,425.17592592592587" fill="rgb(112, 245, 188)"/></g><g id="[object Object]"><polygon points="611.0771474147863,425.17592592592587,626.7457922202937,416.12962962962956,642.414437025801,425.17592592592587,642.414437025801,443.2685185185185,626.7457922202937,452.3148148148148,611.0771474147863,443.2685185185185,611.0771474147863,425.17592592592587" fill="rgb(112, 245, 181)"/></g><g id="[object Object]"><polygon points="485.72798897072755,316.6203703703703,501.3966337762349,307.574074074074,517.0652785817423,316.6203703703703,517.0652785817423,334.71296296296293,501.3966337762349,343.75925925925924,485.72798897072755,334.71296296296293,485.72798897072755,316.6203703703703" fill="rgb(112, 245, 174)"/></g><g id="[object Object]"><polygon points="532.7339233872495,343.75925925925924,548.4025681927569,334.71296296296293,564.0712129982643,343.75925925925924,564.0712129982643,361.85185185185185,548.4025681927569,370.89814814814815,532.7339233872495,361.85185185185185,532.7339233872495,343.75925925925924" fill="rgb(112, 245, 167)"/></g><g id="[object Object]"><polygon points="501.3966337762349,398.037037037037,517.0652785817423,388.9907407407407,532.7339233872497,398.037037037037,532.7339233872497,416.1296296296296,517.0652785817423,425.1759259259259,501.3966337762349,416.1296296296296,501.3966337762349,398.037037037037" fill="rgb(112, 245, 159)"/></g><g id="[object Object]"><polygon points="548.4025681927569,370.8981481481481,564.0712129982643,361.8518518518518,579.7398578037717,370.8981481481481,579.7398578037717,388.9907407407407,564.0712129982643,398.037037037037,548.4025681927569,388.9907407407407,548.4025681927569,370.8981481481481" fill="rgb(112, 245, 152)"/></g><g id="[object Object]"><polygon points="564.0712129982643,398.037037037037,579.7398578037717,388.9907407407407,595.408502609279,398.037037037037,595.408502609279,416.1296296296296,579.7398578037717,425.1759259259259,564.0712129982643,416.1296296296296,564.0712129982643,398.037037037037" fill="rgb(112, 245, 145)"/></g><g id="[object Object]"><polygon points="532.7339233872495,398.037037037037,548.4025681927569,388.9907407407407,564.0712129982643,398.037037037037,564.0712129982643,416.1296296296296,548.4025681927569,425.1759259259259,532.7339233872495,416.1296296296296,532.7339233872495,398.037037037037" fill="rgb(112, 245, 138)"/></g><g id="[object Object]"><polygon points="548.4025681927569,425.17592592592587,564.0712129982643,416.12962962962956,579.7398578037717,425.17592592592587,579.7398578037717,443.2685185185185,564.0712129982643,452.3148148148148,548.4025681927569,443.2685185185185,548.4025681927569,425.17592592592587" fill="rgb(112, 245, 131)"/></g><g id="[object Object]"><polygon points="532.7339233872495,452.3148148148148,548.4025681927569,443.2685185185185,564.0712129982643,452.3148148148148,564.0712129982643,470.4074074074074,548.4025681927569,479.4537037037037,532.7339233872495,470.4074074074074,532.7339233872495,452.3148148148148" fill="rgb(112, 245, 124)"/></g><g id="[object Object]"><polygon points="517.0652785817423,425.17592592592587,532.7339233872497,416.12962962962956,548.402568192757,425.17592592592587,548.402568192757,443.2685185185185,532.7339233872497,452.3148148148148,517.0652785817423,443.2685185185185,517.0652785817423,425.17592592592587" fill="rgb(112, 245, 117)"/></g><g id="[object Object]"><polygon points="579.7398578037715,316.6203703703703,595.4085026092789,307.574074074074,611.0771474147863,316.6203703703703,611.0771474147863,334.71296296296293,595.4085026092789,343.75925925925924,579.7398578037715,334.71296296296293,579.7398578037715,316.6203703703703" fill="rgb(114, 245, 112)"/></g><g id="[object Object]"><polygon points="611.0771474147863,262.34259259259255,626.7457922202937,253.29629629629628,642.414437025801,262.34259259259255,642.414437025801,280.43518518518516,626.7457922202937,289.48148148148147,611.0771474147863,280.43518518518516,611.0771474147863,262.34259259259255" fill="rgb(121, 245, 112)"/></g><g id="[object Object]"><polygon points="595.4085026092789,289.48148148148147,611.0771474147863,280.43518518518516,626.7457922202937,289.48148148148147,626.7457922202937,307.5740740740741,611.0771474147863,316.6203703703704,595.4085026092789,307.5740740740741,595.4085026092789,289.48148148148147" fill="rgb(129, 245, 112)"/></g><g id="[object Object]"><polygon points="564.0712129982643,289.48148148148147,579.7398578037717,280.43518518518516,595.408502609279,289.48148148148147,595.408502609279,307.5740740740741,579.7398578037717,316.6203703703704,564.0712129982643,307.5740740740741,564.0712129982643,289.48148148148147" fill="rgb(136, 245, 112)"/></g><g id="[object Object]"><polygon points="595.4085026092789,343.75925925925924,611.0771474147863,334.71296296296293,626.7457922202937,343.75925925925924,626.7457922202937,361.85185185185185,611.0771474147863,370.89814814814815,595.4085026092789,361.85185185185185,595.4085026092789,343.75925925925924" fill="rgb(143, 245, 112)"/></g><g id="[object Object]"><polygon points="548.4025681927569,316.6203703703703,564.0712129982643,307.574074074074,579.7398578037717,316.6203703703703,579.7398578037717,334.71296296296293,564.0712129982643,343.75925925925924,548.4025681927569,334.71296296296293,548.4025681927569,316.6203703703703" fill="rgb(150, 245, 112)"/></g><g id="[object Object]"><polygon points="626.7457922202937,343.75925925925924,642.414437025801,334.71296296296293,658.0830818313084,343.75925925925924,658.0830818313084,361.85185185185185,642.414437025801,370.89814814814815,626.7457922202937,361.85185185185185,626.7457922202937,343.75925925925924" fill="rgb(157, 245, 112)"/></g><g id="[object Object]"><polygon points="642.414437025801,370.8981481481481,658.0830818313084,361.8518518518518,673.7517266368158,370.8981481481481,673.7517266368158,388.9907407407407,658.0830818313084,398.037037037037,642.414437025801,388.9907407407407,642.414437025801,370.8981481481481" fill="rgb(164, 245, 112)"/></g><g id="[object Object]"><polygon points="611.0771474147863,316.6203703703703,626.7457922202937,307.574074074074,642.414437025801,316.6203703703703,642.414437025801,334.71296296296293,626.7457922202937,343.75925925925924,611.0771474147863,334.71296296296293,611.0771474147863,316.6203703703703" fill="rgb(171, 245, 112)"/></g><g id="[object Object]"><polygon points="658.0830818313083,343.75925925925924,673.7517266368156,334.71296296296293,689.420371442323,343.75925925925924,689.420371442323,361.85185185185185,673.7517266368156,370.89814814814815,658.0830818313083,361.85185185185185,658.0830818313083,343.75925925925924" fill="rgb(179, 245, 112)"/></g><g id="[object Object]"><polygon points="642.414437025801,316.6203703703703,658.0830818313084,307.574074074074,673.7517266368158,316.6203703703703,673.7517266368158,334.71296296296293,658.0830818313084,343.75925925925924,642.414437025801,334.71296296296293,642.414437025801,316.6203703703703" fill="rgb(186, 245, 112)"/></g><g id="[object Object]"><polygon points="626.7457922202937,289.48148148148147,642.414437025801,280.43518518518516,658.0830818313084,289.48148148148147,658.0830818313084,307.5740740740741,642.414437025801,316.6203703703704,626.7457922202937,307.5740740740741,626.7457922202937,289.48148148148147" fill="rgb(193, 245, 112)"/></g><g id="[object Object]"><polygon points="156.6864480550734,560.8703703703703,172.35509286058075,551.824074074074,188.0237376660881,560.8703703703703,188.0237376660881,578.9629629629629,172.35509286058075,588.0092592592592,156.6864480550734,578.9629629629629,156.6864480550734,560.8703703703703" fill="rgb(200, 245, 112)"/></g><g id="[object Object]"><polygon points="188.0237376660881,560.8703703703703,203.69238247159544,551.824074074074,219.36102727710278,560.8703703703703,219.36102727710278,578.9629629629629,203.69238247159544,588.0092592592592,188.0237376660881,578.9629629629629,188.0237376660881,560.8703703703703" fill="rgb(207, 245, 112)"/></g><g id="[object Object]"><polygon points="141.01780324956607,533.7314814814814,156.6864480550734,524.6851851851851,172.35509286058075,533.7314814814814,172.35509286058075,551.824074074074,156.6864480550734,560.8703703703703,141.01780324956607,551.824074074074,141.01780324956607,533.7314814814814" fill="rgb(214, 245, 112)"/></g><g id="[object Object]"><polygon points="172.35509286058075,533.7314814814814,188.0237376660881,524.6851851851851,203.69238247159544,533.7314814814814,203.69238247159544,551.824074074074,188.0237376660881,560.8703703703703,172.35509286058075,551.824074074074,172.35509286058075,533.7314814814814" fill="rgb(221, 245, 112)"/></g><g id="[object Object]"><polygon points="235.02967208261012,588.0092592592592,250.69831688811746,578.9629629629629,266.36696169362483,588.0092592592592,266.36696169362483,606.1018518518518,250.69831688811746,615.1481481481482,235.02967208261012,606.1018518518518,235.02967208261012,588.0092592592592" fill="rgb(228, 245, 112)"/></g><g id="[object Object]"><polygon points="188.0237376660881,615.1481481481482,203.69238247159544,606.1018518518518,219.36102727710278,615.1481481481482,219.36102727710278,633.2407407407408,203.69238247159544,642.2870370370371,188.0237376660881,633.2407407407408,188.0237376660881,615.1481481481482" fill="rgb(236, 245, 112)"/></g><g id="[object Object]"><polygon points="203.69238247159544,588.0092592592592,219.36102727710278,578.9629629629629,235.02967208261012,588.0092592592592,235.02967208261012,606.1018518518518,219.36102727710278,615.1481481481482,203.69238247159544,606.1018518518518,203.69238247159544,588.0092592592592" fill="rgb(243, 245, 112)"/></g><g id="[object Object]"><polygon points="250.6983168881175,615.1481481481482,266.36696169362483,606.1018518518518,282.0356064991322,615.1481481481482,282.0356064991322,633.2407407407408,266.36696169362483,642.2870370370371,250.6983168881175,633.2407407407408,250.6983168881175,615.1481481481482" fill="rgb(245, 240, 112)"/></g><g id="[object Object]"><polygon points="282.0356064991321,615.1481481481482,297.70425130463946,606.1018518518518,313.3728961101468,615.1481481481482,313.3728961101468,633.2407407407408,297.70425130463946,642.2870370370371,282.0356064991321,633.2407407407408,282.0356064991321,615.1481481481482" fill="rgb(245, 233, 112)"/></g><g id="[object Object]"><polygon points="297.70425130463946,642.287037037037,313.3728961101468,633.2407407407406,329.0415409156542,642.287037037037,329.0415409156542,660.3796296296296,313.3728961101468,669.4259259259259,297.70425130463946,660.3796296296296,297.70425130463946,642.287037037037" fill="rgb(245, 226, 112)"/></g><g id="[object Object]"><polygon points="297.70425130463946,588.0092592592592,313.3728961101468,578.9629629629629,329.0415409156542,588.0092592592592,329.0415409156542,606.1018518518518,313.3728961101468,615.1481481481482,297.70425130463946,606.1018518518518,297.70425130463946,588.0092592592592" fill="rgb(245, 219, 112)"/></g><g id="[object Object]"><polygon points="219.36102727710278,615.1481481481482,235.02967208261012,606.1018518518518,250.69831688811746,615.1481481481482,250.69831688811746,633.2407407407408,235.02967208261012,642.2870370370371,219.36102727710278,633.2407407407408,219.36102727710278,615.1481481481482" fill="rgb(245, 212, 112)"/></g><g id="[object Object]"><polygon points="329.0415409156542,588.0092592592592,344.7101857211615,578.9629629629629,360.3788305266688,588.0092592592592,360.3788305266688,606.1018518518518,344.7101857211615,615.1481481481482,329.0415409156542,606.1018518518518,329.0415409156542,588.0092592592592" fill="rgb(245, 205, 112)"/></g><g id="[object Object]"><polygon points="313.3728961101468,560.8703703703703,329.0415409156542,551.824074074074,344.71018572116157,560.8703703703703,344.71018572116157,578.9629629629629,329.0415409156542,588.0092592592592,313.3728961101468,578.9629629629629,313.3728961101468,560.8703703703703" fill="rgb(245, 198, 112)"/></g><g id="[object Object]"><polygon points="266.36696169362483,588.0092592592592,282.03560649913214,578.9629629629629,297.70425130463946,588.0092592592592,297.70425130463946,606.1018518518518,282.03560649913214,615.1481481481482,266.36696169362483,606.1018518518518,266.36696169362483,588.0092592592592" fill="rgb(245, 190, 112)"/></g><g id="[object Object]"><polygon points="266.36696169362483,533.7314814814814,282.03560649913214,524.6851851851851,297.70425130463946,533.7314814814814,297.70425130463946,551.824074074074,282.03560649913214,560.8703703703703,266.36696169362483,551.824074074074,266.36696169362483,533.7314814814814" fill="rgb(245, 183, 112)"/></g><g id="[object Object]"><polygon points="250.6983168881175,560.8703703703703,266.36696169362483,551.824074074074,282.0356064991322,560.8703703703703,282.0356064991322,578.9629629629629,266.36696169362483,588.0092592592592,250.6983168881175,578.9629629629629,250.6983168881175,560.8703703703703" fill="rgb(245, 176, 112)"/></g><g id="[object Object]"><polygon points="282.0356064991321,560.8703703703703,297.70425130463946,551.824074074074,313.3728961101468,560.8703703703703,313.3728961101468,578.9629629629629,297.70425130463946,588.0092592592592,282.0356064991321,578.9629629629629,282.0356064991321,560.8703703703703" fill="rgb(245, 169, 112)"/></g><g id="[object Object]"><polygon points="250.6983168881175,506.5925925925926,266.36696169362483,497.5462962962963,282.0356064991322,506.5925925925926,282.0356064991322,524.6851851851852,266.36696169362483,533.7314814814815,250.6983168881175,524.6851851851852,250.6983168881175,506.5925925925926" fill="rgb(245, 162, 112)"/></g><g id="[object Object]"><polygon points="235.02967208261012,533.7314814814814,250.69831688811746,524.6851851851851,266.36696169362483,533.7314814814814,266.36696169362483,551.824074074074,250.69831688811746,560.8703703703703,235.02967208261012,551.824074074074,235.02967208261012,533.7314814814814" fill="rgb(245, 155, 112)"/></g><g id="[object Object]"><polygon points="219.36102727710278,560.8703703703703,235.02967208261012,551.824074074074,250.69831688811746,560.8703703703703,250.69831688811746,578.9629629629629,235.02967208261012,588.0092592592592,219.36102727710278,578.9629629629629,219.36102727710278,560.8703703703703" fill="rgb(245, 148, 112)"/></g><g id="[object Object]"><polygon points="172.35509286058075,588.0092592592592,188.0237376660881,578.9629629629629,203.69238247159544,588.0092592592592,203.69238247159544,606.1018518518518,188.0237376660881,615.1481481481482,172.35509286058075,606.1018518518518,172.35509286058075,588.0092592592592" fill="rgb(245, 140, 112)"/></g><g id="[object Object]"><polygon points="203.69238247159544,533.7314814814814,219.36102727710278,524.6851851851851,235.02967208261012,533.7314814814814,235.02967208261012,551.824074074074,219.36102727710278,560.8703703703703,203.69238247159544,551.824074074074,203.69238247159544,533.7314814814814" fill="rgb(245, 133, 112)"/></g><g id="[object Object]"><polygon points="156.6864480550734,506.5925925925926,172.35509286058075,497.5462962962963,188.0237376660881,506.5925925925926,188.0237376660881,524.6851851851852,172.35509286058075,533.7314814814815,156.6864480550734,524.6851851851852,156.6864480550734,506.5925925925926" fill="rgb(245, 126, 112)"/></g><g id="[object Object]"><polygon points="172.35509286058075,479.4537037037037,188.0237376660881,470.4074074074074,203.69238247159544,479.4537037037037,203.69238247159544,497.5462962962963,188.0237376660881,506.5925925925926,172.35509286058075,497.5462962962963,172.35509286058075,479.4537037037037" fill="rgb(245, 119, 112)"/></g><g id="[object Object]"><polygon points="203.69238247159544,425.17592592592587,219.36102727710278,416.12962962962956,235.02967208261012,425.17592592592587,235.02967208261012,443.2685185185185,219.36102727710278,452.3148148148148,203.69238247159544,443.2685185185185,203.69238247159544,425.17592592592587" fill="rgb(112, 245, 245)"/></g><g id="[object Object]"><polygon points="219.36102727710278,452.3148148148148,235.02967208261012,443.2685185185185,250.69831688811746,452.3148148148148,250.69831688811746,470.4074074074074,235.02967208261012,479.4537037037037,219.36102727710278,470.4074074074074,219.36102727710278,452.3148148148148" fill="rgb(112, 245, 238)"/></g><g id="[object Object]"><polygon points="203.69238247159544,479.4537037037037,219.36102727710278,470.4074074074074,235.02967208261012,479.4537037037037,235.02967208261012,497.5462962962963,219.36102727710278,506.5925925925926,203.69238247159544,497.5462962962963,203.69238247159544,479.4537037037037" fill="rgb(112, 245, 231)"/></g><g id="[object Object]"><polygon points="297.70425130463946,533.7314814814814,313.3728961101468,524.6851851851851,329.0415409156542,533.7314814814814,329.0415409156542,551.824074074074,313.3728961101468,560.8703703703703,297.70425130463946,551.824074074074,297.70425130463946,533.7314814814814" fill="rgb(112, 245, 224)"/></g><g id="[object Object]"><polygon points="188.0237376660881,506.5925925925926,203.69238247159544,497.5462962962963,219.36102727710278,506.5925925925926,219.36102727710278,524.6851851851852,203.69238247159544,533.7314814814815,188.0237376660881,524.6851851851852,188.0237376660881,506.5925925925926" fill="rgb(112, 245, 217)"/></g><g id="[object Object]"><polygon points="235.02967208261012,479.4537037037037,250.69831688811746,470.4074074074074,266.36696169362483,479.4537037037037,266.36696169362483,497.5462962962963,250.69831688811746,506.5925925925926,235.02967208261012,497.5462962962963,235.02967208261012,479.4537037037037" fill="rgb(112, 245, 209)"/></g><g id="[object Object]"><polygon points="219.36102727710278,506.5925925925926,235.02967208261012,497.5462962962963,250.69831688811746,506.5925925925926,250.69831688811746,524.6851851851852,235.02967208261012,533.7314814814815,219.36102727710278,524.6851851851852,219.36102727710278,506.5925925925926" fill="rgb(112, 245, 202)"/></g><g id="[object Object]"><polygon points="282.0356064991321,506.5925925925926,297.70425130463946,497.5462962962963,313.3728961101468,506.5925925925926,313.3728961101468,524.6851851851852,297.70425130463946,533.7314814814815,282.0356064991321,524.6851851851852,282.0356064991321,506.5925925925926" fill="rgb(112, 245, 195)"/></g><g id="[object Object]"><polygon points="329.0415409156542,533.7314814814814,344.7101857211615,524.6851851851851,360.3788305266688,533.7314814814814,360.3788305266688,551.824074074074,344.7101857211615,560.8703703703703,329.0415409156542,551.824074074074,329.0415409156542,533.7314814814814" fill="rgb(112, 245, 188)"/></g><g id="[object Object]"><polygon points="297.70425130463946,479.4537037037037,313.3728961101468,470.4074074074074,329.0415409156542,479.4537037037037,329.0415409156542,497.5462962962963,313.3728961101468,506.5925925925926,297.70425130463946,497.5462962962963,297.70425130463946,479.4537037037037" fill="rgb(112, 245, 181)"/></g><g id="[object Object]"><polygon points="282.0356064991321,452.3148148148148,297.70425130463946,443.2685185185185,313.3728961101468,452.3148148148148,313.3728961101468,470.4074074074074,297.70425130463946,479.4537037037037,282.0356064991321,470.4074074074074,282.0356064991321,452.3148148148148" fill="rgb(112, 245, 174)"/></g><g id="[object Object]"><polygon points="266.36696169362483,479.4537037037037,282.03560649913214,470.4074074074074,297.70425130463946,479.4537037037037,297.70425130463946,497.5462962962963,282.03560649913214,506.5925925925926,266.36696169362483,497.5462962962963,266.36696169362483,479.4537037037037" fill="rgb(112, 245, 167)"/></g><g id="[object Object]"><polygon points="282.0356064991321,398.037037037037,297.70425130463946,388.9907407407407,313.3728961101468,398.037037037037,313.3728961101468,416.1296296296296,297.70425130463946,425.1759259259259,282.0356064991321,416.1296296296296,282.0356064991321,398.037037037037" fill="rgb(112, 245, 159)"/></g><g id="[object Object]"><polygon points="250.6983168881175,452.3148148148148,266.36696169362483,443.2685185185185,282.0356064991322,452.3148148148148,282.0356064991322,470.4074074074074,266.36696169362483,479.4537037037037,250.6983168881175,470.4074074074074,250.6983168881175,452.3148148148148" fill="rgb(112, 245, 152)"/></g><g id="[object Object]"><polygon points="235.02967208261012,425.17592592592587,250.69831688811746,416.12962962962956,266.36696169362483,425.17592592592587,266.36696169362483,443.2685185185185,250.69831688811746,452.3148148148148,235.02967208261012,443.2685185185185,235.02967208261012,425.17592592592587" fill="rgb(112, 245, 145)"/></g><g id="[object Object]"><polygon points="266.36696169362483,425.17592592592587,282.03560649913214,416.12962962962956,297.70425130463946,425.17592592592587,297.70425130463946,443.2685185185185,282.03560649913214,452.3148148148148,266.36696169362483,443.2685185185185,266.36696169362483,425.17592592592587" fill="rgb(112, 245, 138)"/></g><g id="[object Object]"><polygon points="313.3728961101468,398.037037037037,329.0415409156542,388.9907407407407,344.71018572116157,398.037037037037,344.71018572116157,416.1296296296296,329.0415409156542,425.1759259259259,313.3728961101468,416.1296296296296,313.3728961101468,398.037037037037" fill="rgb(112, 245, 131)"/></g><g id="[object Object]"><polygon points="297.70425130463946,425.17592592592587,313.3728961101468,416.12962962962956,329.0415409156542,425.17592592592587,329.0415409156542,443.2685185185185,313.3728961101468,452.3148148148148,297.70425130463946,443.2685185185185,297.70425130463946,425.17592592592587" fill="rgb(112, 245, 124)"/></g><g id="[object Object]"><polygon points="329.0415409156542,425.17592592592587,344.7101857211615,416.12962962962956,360.3788305266688,425.17592592592587,360.3788305266688,443.2685185185185,344.7101857211615,452.3148148148148,329.0415409156542,443.2685185185185,329.0415409156542,425.17592592592587" fill="rgb(112, 245, 117)"/></g><g id="[object Object]"><polygon points="344.71018572116145,452.3148148148148,360.3788305266688,443.2685185185185,376.0474753321762,452.3148148148148,376.0474753321762,470.4074074074074,360.3788305266688,479.4537037037037,344.71018572116145,470.4074074074074,344.71018572116145,452.3148148148148" fill="rgb(114, 245, 112)"/></g><g id="[object Object]"><polygon points="376.0474753321762,452.3148148148148,391.71612013768356,443.2685185185185,407.38476494319093,452.3148148148148,407.38476494319093,470.4074074074074,391.71612013768356,479.4537037037037,376.0474753321762,470.4074074074074,376.0474753321762,452.3148148148148" fill="rgb(121, 245, 112)"/></g><g id="[object Object]"><polygon points="360.3788305266688,425.17592592592587,376.0474753321762,416.12962962962956,391.71612013768356,425.17592592592587,391.71612013768356,443.2685185185185,376.0474753321762,452.3148148148148,360.3788305266688,443.2685185185185,360.3788305266688,425.17592592592587" fill="rgb(129, 245, 112)"/></g><g id="[object Object]"><polygon points="376.0474753321762,398.037037037037,391.71612013768356,388.9907407407407,407.38476494319093,398.037037037037,407.38476494319093,416.1296296296296,391.71612013768356,425.1759259259259,376.0474753321762,416.1296296296296,376.0474753321762,398.037037037037" fill="rgb(136, 245, 112)"/></g><g id="[object Object]"><polygon points="391.71612013768356,425.17592592592587,407.3847649431909,416.12962962962956,423.0534097486982,425.17592592592587,423.0534097486982,443.2685185185185,407.3847649431909,452.3148148148148,391.71612013768356,443.2685185185185,391.71612013768356,425.17592592592587" fill="rgb(143, 245, 112)"/></g><g id="[object Object]"><polygon points="423.0534097486982,479.4537037037037,438.72205455420556,470.4074074074074,454.3906993597129,479.4537037037037,454.3906993597129,497.5462962962963,438.72205455420556,506.5925925925926,423.0534097486982,497.5462962962963,423.0534097486982,479.4537037037037" fill="rgb(150, 245, 112)"/></g><g id="[object Object]"><polygon points="391.71612013768356,479.4537037037037,407.3847649431909,470.4074074074074,423.0534097486982,479.4537037037037,423.0534097486982,497.5462962962963,407.3847649431909,506.5925925925926,391.71612013768356,497.5462962962963,391.71612013768356,479.4537037037037" fill="rgb(157, 245, 112)"/></g><g id="[object Object]"><polygon points="376.0474753321762,560.8703703703703,391.71612013768356,551.824074074074,407.38476494319093,560.8703703703703,407.38476494319093,578.9629629629629,391.71612013768356,588.0092592592592,376.0474753321762,578.9629629629629,376.0474753321762,560.8703703703703" fill="rgb(164, 245, 112)"/></g><g id="[object Object]"><polygon points="344.71018572116145,560.8703703703703,360.3788305266688,551.824074074074,376.0474753321762,560.8703703703703,376.0474753321762,578.9629629629629,360.3788305266688,588.0092592592592,344.71018572116145,578.9629629629629,344.71018572116145,560.8703703703703" fill="rgb(171, 245, 112)"/></g><g id="[object Object]"><polygon points="360.3788305266688,533.7314814814814,376.0474753321762,524.6851851851851,391.71612013768356,533.7314814814814,391.71612013768356,551.824074074074,376.0474753321762,560.8703703703703,360.3788305266688,551.824074074074,360.3788305266688,533.7314814814814" fill="rgb(179, 245, 112)"/></g><g id="[object Object]"><polygon points="313.3728961101468,506.5925925925926,329.0415409156542,497.5462962962963,344.71018572116157,506.5925925925926,344.71018572116157,524.6851851851852,329.0415409156542,533.7314814814815,313.3728961101468,524.6851851851852,313.3728961101468,506.5925925925926" fill="rgb(186, 245, 112)"/></g><g id="[object Object]"><polygon points="423.0534097486982,533.7314814814814,438.72205455420556,524.6851851851851,454.3906993597129,533.7314814814814,454.3906993597129,551.824074074074,438.72205455420556,560.8703703703703,423.0534097486982,551.824074074074,423.0534097486982,533.7314814814814" fill="rgb(193, 245, 112)"/></g><g id="[object Object]"><polygon points="344.71018572116145,506.5925925925926,360.3788305266688,497.5462962962963,376.0474753321762,506.5925925925926,376.0474753321762,524.6851851851852,360.3788305266688,533.7314814814815,344.71018572116145,524.6851851851852,344.71018572116145,506.5925925925926" fill="rgb(200, 245, 112)"/></g><g id="[object Object]"><polygon points="329.0415409156542,479.4537037037037,344.7101857211615,470.4074074074074,360.3788305266688,479.4537037037037,360.3788305266688,497.5462962962963,344.7101857211615,506.5925925925926,329.0415409156542,497.5462962962963,329.0415409156542,479.4537037037037" fill="rgb(207, 245, 112)"/></g><g id="[object Object]"><polygon points="313.3728961101468,452.3148148148148,329.0415409156542,443.2685185185185,344.71018572116157,452.3148148148148,344.71018572116157,470.4074074074074,329.0415409156542,479.4537037037037,313.3728961101468,470.4074074074074,313.3728961101468,452.3148148148148" fill="rgb(214, 245, 112)"/></g><g id="[object Object]"><polygon points="360.3788305266688,479.4537037037037,376.0474753321762,470.4074074074074,391.71612013768356,479.4537037037037,391.71612013768356,497.5462962962963,376.0474753321762,506.5925925925926,360.3788305266688,497.5462962962963,360.3788305266688,479.4537037037037" fill="rgb(221, 245, 112)"/></g><g id="[object Object]"><polygon points="376.0474753321762,506.5925925925926,391.71612013768356,497.5462962962963,407.38476494319093,506.5925925925926,407.38476494319093,524.6851851851852,391.71612013768356,533.7314814814815,376.0474753321762,524.6851851851852,376.0474753321762,506.5925925925926" fill="rgb(228, 245, 112)"/></g><g id="[object Object]"><polygon points="454.3906993597129,533.7314814814814,470.05934416522024,524.6851851851851,485.72798897072755,533.7314814814814,485.72798897072755,551.824074074074,470.05934416522024,560.8703703703703,454.3906993597129,551.824074074074,454.3906993597129,533.7314814814814" fill="rgb(236, 245, 112)"/></g><g id="[object Object]"><polygon points="407.3847649431908,560.8703703703703,423.0534097486982,551.824074074074,438.72205455420556,560.8703703703703,438.72205455420556,578.9629629629629,423.0534097486982,588.0092592592592,407.3847649431908,578.9629629629629,407.3847649431908,560.8703703703703" fill="rgb(243, 245, 112)"/></g><g id="[object Object]"><polygon points="391.71612013768356,533.7314814814814,407.3847649431909,524.6851851851851,423.0534097486982,533.7314814814814,423.0534097486982,551.824074074074,407.3847649431909,560.8703703703703,391.71612013768356,551.824074074074,391.71612013768356,533.7314814814814" fill="rgb(245, 240, 112)"/></g><g id="[object Object]"><polygon points="579.7398578037715,425.17592592592587,595.4085026092789,416.12962962962956,611.0771474147863,425.17592592592587,611.0771474147863,443.2685185185185,595.4085026092789,452.3148148148148,579.7398578037715,443.2685185185185,579.7398578037715,425.17592592592587" fill="rgb(245, 233, 112)"/></g><g id="[object Object]"><polygon points="564.0712129982643,452.3148148148148,579.7398578037717,443.2685185185185,595.408502609279,452.3148148148148,595.408502609279,470.4074074074074,579.7398578037717,479.4537037037037,564.0712129982643,470.4074074074074,564.0712129982643,452.3148148148148" fill="rgb(245, 226, 112)"/></g><g id="[object Object]"><polygon points="548.4025681927569,479.4537037037037,564.0712129982643,470.4074074074074,579.7398578037717,479.4537037037037,579.7398578037717,497.5462962962963,564.0712129982643,506.5925925925926,548.4025681927569,497.5462962962963,548.4025681927569,479.4537037037037" fill="rgb(245, 219, 112)"/></g><g id="[object Object]"><polygon points="579.7398578037715,479.4537037037037,595.4085026092789,470.4074074074074,611.0771474147863,479.4537037037037,611.0771474147863,497.5462962962963,595.4085026092789,506.5925925925926,579.7398578037715,497.5462962962963,579.7398578037715,479.4537037037037" fill="rgb(245, 212, 112)"/></g><g id="[object Object]"><polygon points="595.4085026092789,452.3148148148148,611.0771474147863,443.2685185185185,626.7457922202937,452.3148148148148,626.7457922202937,470.4074074074074,611.0771474147863,479.4537037037037,595.4085026092789,470.4074074074074,595.4085026092789,452.3148148148148" fill="rgb(245, 205, 112)"/></g><g id="[object Object]"><polygon points="642.414437025801,479.4537037037037,658.0830818313084,470.4074074074074,673.7517266368158,479.4537037037037,673.7517266368158,497.5462962962963,658.0830818313084,506.5925925925926,642.414437025801,497.5462962962963,642.414437025801,479.4537037037037" fill="rgb(245, 198, 112)"/></g><g id="[object Object]"><polygon points="673.7517266368156,479.4537037037037,689.420371442323,470.4074074074074,705.0890162478304,479.4537037037037,705.0890162478304,497.5462962962963,689.420371442323,506.5925925925926,673.7517266368156,497.5462962962963,673.7517266368156,479.4537037037037" fill="rgb(245, 190, 112)"/></g><g id="[object Object]"><polygon points="658.0830818313083,506.5925925925926,673.7517266368156,497.5462962962963,689.420371442323,506.5925925925926,689.420371442323,524.6851851851852,673.7517266368156,533.7314814814815,658.0830818313083,524.6851851851852,658.0830818313083,506.5925925925926" fill="rgb(245, 183, 112)"/></g><g id="[object Object]"><polygon points="611.0771474147863,479.4537037037037,626.7457922202937,470.4074074074074,642.414437025801,479.4537037037037,642.414437025801,497.5462962962963,626.7457922202937,506.5925925925926,611.0771474147863,497.5462962962963,611.0771474147863,479.4537037037037" fill="rgb(245, 176, 112)"/></g><g id="[object Object]"><polygon points="626.7457922202937,452.3148148148148,642.414437025801,443.2685185185185,658.0830818313084,452.3148148148148,658.0830818313084,470.4074074074074,642.414437025801,479.4537037037037,626.7457922202937,470.4074074074074,626.7457922202937,452.3148148148148" fill="rgb(245, 169, 112)"/></g><g id="[object Object]"><polygon points="626.7457922202937,506.5925925925926,642.414437025801,497.5462962962963,658.0830818313084,506.5925925925926,658.0830818313084,524.6851851851852,642.414437025801,533.7314814814815,626.7457922202937,524.6851851851852,626.7457922202937,506.5925925925926" fill="rgb(245, 162, 112)"/></g><g id="[object Object]"><polygon points="595.4085026092789,506.5925925925926,611.0771474147863,497.5462962962963,626.7457922202937,506.5925925925926,626.7457922202937,524.6851851851852,611.0771474147863,533.7314814814815,595.4085026092789,524.6851851851852,595.4085026092789,506.5925925925926" fill="rgb(245, 155, 112)"/></g><g id="[object Object]"><polygon points="564.0712129982643,506.5925925925926,579.7398578037717,497.5462962962963,595.408502609279,506.5925925925926,595.408502609279,524.6851851851852,579.7398578037717,533.7314814814815,564.0712129982643,524.6851851851852,564.0712129982643,506.5925925925926" fill="rgb(245, 148, 112)"/></g><g id="[object Object]"><polygon points="642.414437025801,533.7314814814814,658.0830818313084,524.6851851851851,673.7517266368158,533.7314814814814,673.7517266368158,551.824074074074,658.0830818313084,560.8703703703703,642.414437025801,551.824074074074,642.414437025801,533.7314814814814" fill="rgb(245, 140, 112)"/></g><g id="[object Object]"><polygon points="611.0771474147863,533.7314814814814,626.7457922202937,524.6851851851851,642.414437025801,533.7314814814814,642.414437025801,551.824074074074,626.7457922202937,560.8703703703703,611.0771474147863,551.824074074074,611.0771474147863,533.7314814814814" fill="rgb(245, 133, 112)"/></g><g id="[object Object]"><polygon points="626.7457922202937,560.8703703703703,642.414437025801,551.824074074074,658.0830818313084,560.8703703703703,658.0830818313084,578.9629629629629,642.414437025801,588.0092592592592,626.7457922202937,578.9629629629629,626.7457922202937,560.8703703703703" fill="rgb(245, 126, 112)"/></g><g id="[object Object]"><polygon points="407.3847649431908,506.5925925925926,423.0534097486982,497.5462962962963,438.72205455420556,506.5925925925926,438.72205455420556,524.6851851851852,423.0534097486982,533.7314814814815,407.3847649431908,524.6851851851852,407.3847649431908,506.5925925925926" fill="rgb(245, 119, 112)"/></g><g id="[object Object]"><polygon points="438.72205455420556,506.5925925925926,454.3906993597129,497.5462962962963,470.0593441652203,506.5925925925926,470.0593441652203,524.6851851851852,454.3906993597129,533.7314814814815,438.72205455420556,524.6851851851852,438.72205455420556,506.5925925925926" fill="rgb(112, 245, 245)"/></g><g id="[object Object]"><polygon points="517.0652785817423,533.7314814814814,532.7339233872497,524.6851851851851,548.402568192757,533.7314814814814,548.402568192757,551.824074074074,532.7339233872497,560.8703703703703,517.0652785817423,551.824074074074,517.0652785817423,533.7314814814814" fill="rgb(112, 245, 238)"/></g><g id="[object Object]"><polygon points="485.72798897072755,533.7314814814814,501.3966337762349,524.6851851851851,517.0652785817423,533.7314814814814,517.0652785817423,551.824074074074,501.3966337762349,560.8703703703703,485.72798897072755,551.824074074074,485.72798897072755,533.7314814814814" fill="rgb(112, 245, 231)"/></g><g id="[object Object]"><polygon points="470.0593441652202,560.8703703703703,485.72798897072755,551.824074074074,501.3966337762349,560.8703703703703,501.3966337762349,578.9629629629629,485.72798897072755,588.0092592592592,470.0593441652202,578.9629629629629,470.0593441652202,560.8703703703703" fill="rgb(112, 245, 224)"/></g><g id="[object Object]"><polygon points="438.72205455420556,560.8703703703703,454.3906993597129,551.824074074074,470.0593441652203,560.8703703703703,470.0593441652203,578.9629629629629,454.3906993597129,588.0092592592592,438.72205455420556,578.9629629629629,438.72205455420556,560.8703703703703" fill="rgb(112, 245, 217)"/></g><g id="[object Object]"><polygon points="454.3906993597129,588.0092592592592,470.05934416522024,578.9629629629629,485.72798897072755,588.0092592592592,485.72798897072755,606.1018518518518,470.05934416522024,615.1481481481482,454.3906993597129,606.1018518518518,454.3906993597129,588.0092592592592" fill="rgb(112, 245, 209)"/></g><g id="[object Object]"><polygon points="501.3966337762349,560.8703703703703,517.0652785817423,551.824074074074,532.7339233872497,560.8703703703703,532.7339233872497,578.9629629629629,517.0652785817423,588.0092592592592,501.3966337762349,578.9629629629629,501.3966337762349,560.8703703703703" fill="rgb(112, 245, 202)"/></g><g id="[object Object]"><polygon points="485.72798897072755,588.0092592592592,501.3966337762349,578.9629629629629,517.0652785817423,588.0092592592592,517.0652785817423,606.1018518518518,501.3966337762349,615.1481481481482,485.72798897072755,606.1018518518518,485.72798897072755,588.0092592592592" fill="rgb(112, 245, 195)"/></g><g id="[object Object]"><polygon points="423.0534097486982,588.0092592592592,438.72205455420556,578.9629629629629,454.3906993597129,588.0092592592592,454.3906993597129,606.1018518518518,438.72205455420556,615.1481481481482,423.0534097486982,606.1018518518518,423.0534097486982,588.0092592592592" fill="rgb(112, 245, 188)"/></g><g id="[object Object]"><polygon points="407.3847649431908,615.1481481481482,423.0534097486982,606.1018518518518,438.72205455420556,615.1481481481482,438.72205455420556,633.2407407407408,423.0534097486982,642.2870370370371,407.3847649431908,633.2407407407408,407.3847649431908,615.1481481481482" fill="rgb(112, 245, 181)"/></g><g id="[object Object]"><polygon points="344.71018572116145,615.1481481481482,360.3788305266688,606.1018518518518,376.0474753321762,615.1481481481482,376.0474753321762,633.2407407407408,360.3788305266688,642.2870370370371,344.71018572116145,633.2407407407408,344.71018572116145,615.1481481481482" fill="rgb(112, 245, 174)"/></g><g id="[object Object]"><polygon points="376.0474753321762,615.1481481481482,391.71612013768356,606.1018518518518,407.38476494319093,615.1481481481482,407.38476494319093,633.2407407407408,391.71612013768356,642.2870370370371,376.0474753321762,633.2407407407408,376.0474753321762,615.1481481481482" fill="rgb(112, 245, 167)"/></g><g id="[object Object]"><polygon points="438.72205455420556,615.1481481481482,454.3906993597129,606.1018518518518,470.0593441652203,615.1481481481482,470.0593441652203,633.2407407407408,454.3906993597129,642.2870370370371,438.72205455420556,633.2407407407408,438.72205455420556,615.1481481481482" fill="rgb(112, 245, 159)"/></g><g id="[object Object]"><polygon points="391.71612013768356,642.287037037037,407.3847649431909,633.2407407407406,423.0534097486982,642.287037037037,423.0534097486982,660.3796296296296,407.3847649431909,669.4259259259259,391.71612013768356,660.3796296296296,391.71612013768356,642.287037037037" fill="rgb(112, 245, 152)"/></g><g id="[object Object]"><polygon points="423.0534097486982,642.287037037037,438.72205455420556,633.2407407407406,454.3906993597129,642.287037037037,454.3906993597129,660.3796296296296,438.72205455420556,669.4259259259259,423.0534097486982,660.3796296296296,423.0534097486982,642.287037037037" fill="rgb(112, 245, 145)"/></g><g id="[object Object]"><polygon points="454.3906993597129,642.287037037037,470.05934416522024,633.2407407407406,485.72798897072755,642.287037037037,485.72798897072755,660.3796296296296,470.05934416522024,669.4259259259259,454.3906993597129,660.3796296296296,454.3906993597129,642.287037037037" fill="rgb(112, 245, 138)"/></g><g id="[object Object]"><polygon points="438.72205455420556,669.4259259259259,454.3906993597129,660.3796296296296,470.0593441652203,669.4259259259259,470.0593441652203,687.5185185185185,454.3906993597129,696.5648148148148,438.72205455420556,687.5185185185185,438.72205455420556,669.4259259259259" fill="rgb(112, 245, 131)"/></g><g id="[object Object]"><polygon points="485.72798897072755,642.287037037037,501.3966337762349,633.2407407407406,517.0652785817423,642.287037037037,517.0652785817423,660.3796296296296,501.3966337762349,669.4259259259259,485.72798897072755,660.3796296296296,485.72798897072755,642.287037037037" fill="rgb(112, 245, 124)"/></g><g id="[object Object]"><polygon points="470.0593441652202,669.4259259259259,485.72798897072755,660.3796296296296,501.3966337762349,669.4259259259259,501.3966337762349,687.5185185185185,485.72798897072755,696.5648148148148,470.0593441652202,687.5185185185185,470.0593441652202,669.4259259259259" fill="rgb(112, 245, 117)"/></g><g id="[object Object]"><polygon points="501.3966337762349,669.4259259259259,517.0652785817423,660.3796296296296,532.7339233872497,669.4259259259259,532.7339233872497,687.5185185185185,517.0652785817423,696.5648148148148,501.3966337762349,687.5185185185185,501.3966337762349,669.4259259259259" fill="rgb(114, 245, 112)"/></g><g id="[object Object]"><polygon points="485.72798897072755,696.5648148148148,501.3966337762349,687.5185185185185,517.0652785817423,696.5648148148148,517.0652785817423,714.6574074074074,501.3966337762349,723.7037037037037,485.72798897072755,714.6574074074074,485.72798897072755,696.5648148148148" fill="rgb(121, 245, 112)"/></g><g id="[object Object]"><polygon points="454.3906993597129,479.4537037037037,470.05934416522024,470.4074074074074,485.72798897072755,479.4537037037037,485.72798897072755,497.5462962962963,470.05934416522024,506.5925925925926,454.3906993597129,497.5462962962963,454.3906993597129,479.4537037037037" fill="rgb(129, 245, 112)"/></g><g id="[object Object]"><polygon points="470.0593441652202,506.5925925925926,485.72798897072755,497.5462962962963,501.3966337762349,506.5925925925926,501.3966337762349,524.6851851851852,485.72798897072755,533.7314814814815,470.0593441652202,524.6851851851852,470.0593441652202,506.5925925925926" fill="rgb(136, 245, 112)"/></g><g id="[object Object]"><polygon points="501.3966337762349,452.3148148148148,517.0652785817423,443.2685185185185,532.7339233872497,452.3148148148148,532.7339233872497,470.4074074074074,517.0652785817423,479.4537037037037,501.3966337762349,470.4074074074074,501.3966337762349,452.3148148148148" fill="rgb(143, 245, 112)"/></g><g id="[object Object]"><polygon points="501.3966337762349,506.5925925925926,517.0652785817423,497.5462962962963,532.7339233872497,506.5925925925926,532.7339233872497,524.6851851851852,517.0652785817423,533.7314814814815,501.3966337762349,524.6851851851852,501.3966337762349,506.5925925925926" fill="rgb(150, 245, 112)"/></g><g id="[object Object]"><polygon points="485.72798897072755,479.4537037037037,501.3966337762349,470.4074074074074,517.0652785817423,479.4537037037037,517.0652785817423,497.5462962962963,501.3966337762349,506.5925925925926,485.72798897072755,497.5462962962963,485.72798897072755,479.4537037037037" fill="rgb(157, 245, 112)"/></g><g id="[object Object]"><polygon points="517.0652785817423,479.4537037037037,532.7339233872497,470.4074074074074,548.402568192757,479.4537037037037,548.402568192757,497.5462962962963,532.7339233872497,506.5925925925926,517.0652785817423,497.5462962962963,517.0652785817423,479.4537037037037" fill="rgb(164, 245, 112)"/></g><g id="[object Object]"><polygon points="532.7339233872495,506.5925925925926,548.4025681927569,497.5462962962963,564.0712129982643,506.5925925925926,564.0712129982643,524.6851851851852,548.4025681927569,533.7314814814815,532.7339233872495,524.6851851851852,532.7339233872495,506.5925925925926" fill="rgb(171, 245, 112)"/></g><g id="[object Object]"><polygon points="579.7398578037715,533.7314814814814,595.4085026092789,524.6851851851851,611.0771474147863,533.7314814814814,611.0771474147863,551.824074074074,595.4085026092789,560.8703703703703,579.7398578037715,551.824074074074,579.7398578037715,533.7314814814814" fill="rgb(179, 245, 112)"/></g><g id="[object Object]"><polygon points="548.4025681927569,533.7314814814814,564.0712129982643,524.6851851851851,579.7398578037717,533.7314814814814,579.7398578037717,551.824074074074,564.0712129982643,560.8703703703703,548.4025681927569,551.824074074074,548.4025681927569,533.7314814814814" fill="rgb(186, 245, 112)"/></g><g id="[object Object]"><polygon points="360.3788305266688,588.0092592592592,376.0474753321762,578.9629629629629,391.71612013768356,588.0092592592592,391.71612013768356,606.1018518518518,376.0474753321762,615.1481481481482,360.3788305266688,606.1018518518518,360.3788305266688,588.0092592592592" fill="rgb(193, 245, 112)"/></g><g id="[object Object]"><polygon points="313.3728961101468,615.1481481481482,329.0415409156542,606.1018518518518,344.71018572116157,615.1481481481482,344.71018572116157,633.2407407407408,329.0415409156542,642.2870370370371,313.3728961101468,633.2407407407408,313.3728961101468,615.1481481481482" fill="rgb(200, 245, 112)"/></g><g id="[object Object]"><polygon points="329.0415409156542,642.287037037037,344.7101857211615,633.2407407407406,360.3788305266688,642.287037037037,360.3788305266688,660.3796296296296,344.7101857211615,669.4259259259259,329.0415409156542,660.3796296296296,329.0415409156542,642.287037037037" fill="rgb(207, 245, 112)"/></g><g id="[object Object]"><polygon points="266.36696169362483,642.287037037037,282.03560649913214,633.2407407407406,297.70425130463946,642.287037037037,297.70425130463946,660.3796296296296,282.03560649913214,669.4259259259259,266.36696169362483,660.3796296296296,266.36696169362483,642.287037037037" fill="rgb(214, 245, 112)"/></g><g id="[object Object]"><polygon points="376.0474753321762,669.4259259259259,391.71612013768356,660.3796296296296,407.38476494319093,669.4259259259259,407.38476494319093,687.5185185185185,391.71612013768356,696.5648148148148,376.0474753321762,687.5185185185185,376.0474753321762,669.4259259259259" fill="rgb(221, 245, 112)"/></g><g id="[object Object]"><polygon points="235.02967208261012,642.287037037037,250.69831688811746,633.2407407407406,266.36696169362483,642.287037037037,266.36696169362483,660.3796296296296,250.69831688811746,669.4259259259259,235.02967208261012,660.3796296296296,235.02967208261012,642.287037037037" fill="rgb(228, 245, 112)"/></g><g id="[object Object]"><polygon points="250.6983168881175,669.4259259259259,266.36696169362483,660.3796296296296,282.0356064991322,669.4259259259259,282.0356064991322,687.5185185185185,266.36696169362483,696.5648148148148,250.6983168881175,687.5185185185185,250.6983168881175,669.4259259259259" fill="rgb(236, 245, 112)"/></g><g id="[object Object]"><polygon points="391.71612013768356,588.0092592592592,407.3847649431909,578.9629629629629,423.0534097486982,588.0092592592592,423.0534097486982,606.1018518518518,407.3847649431909,615.1481481481482,391.71612013768356,606.1018518518518,391.71612013768356,588.0092592592592" fill="rgb(243, 245, 112)"/></g><g id="[object Object]"><polygon points="360.3788305266688,642.287037037037,376.0474753321762,633.2407407407406,391.71612013768356,642.287037037037,391.71612013768356,660.3796296296296,376.0474753321762,669.4259259259259,360.3788305266688,660.3796296296296,360.3788305266688,642.287037037037" fill="rgb(245, 240, 112)"/></g><g id="[object Object]"><polygon points="407.3847649431908,669.4259259259259,423.0534097486982,660.3796296296296,438.72205455420556,669.4259259259259,438.72205455420556,687.5185185185185,423.0534097486982,696.5648148148148,407.3847649431908,687.5185185185185,407.3847649431908,669.4259259259259" fill="rgb(245, 233, 112)"/></g><g id="[object Object]"><polygon points="360.3788305266688,696.5648148148148,376.0474753321762,687.5185185185185,391.71612013768356,696.5648148148148,391.71612013768356,714.6574074074074,376.0474753321762,723.7037037037037,360.3788305266688,714.6574074074074,360.3788305266688,696.5648148148148" fill="rgb(245, 226, 112)"/></g><g id="[object Object]"><polygon points="329.0415409156542,696.5648148148148,344.7101857211615,687.5185185185185,360.3788305266688,696.5648148148148,360.3788305266688,714.6574074074074,344.7101857211615,723.7037037037037,329.0415409156542,714.6574074074074,329.0415409156542,696.5648148148148" fill="rgb(245, 219, 112)"/></g><g id="[object Object]"><polygon points="344.71018572116145,669.4259259259259,360.3788305266688,660.3796296296296,376.0474753321762,669.4259259259259,376.0474753321762,687.5185185185185,360.3788305266688,696.5648148148148,344.71018572116145,687.5185185185185,344.71018572116145,669.4259259259259" fill="rgb(245, 212, 112)"/></g><g id="[object Object]"><polygon points="282.0356064991321,723.7037037037037,297.70425130463946,714.6574074074074,313.3728961101468,723.7037037037037,313.3728961101468,741.7962962962963,297.70425130463946,750.8425925925926,282.0356064991321,741.7962962962963,282.0356064991321,723.7037037037037" fill="rgb(245, 205, 112)"/></g><g id="[object Object]"><polygon points="313.3728961101468,723.7037037037037,329.0415409156542,714.6574074074074,344.71018572116157,723.7037037037037,344.71018572116157,741.7962962962963,329.0415409156542,750.8425925925926,313.3728961101468,741.7962962962963,313.3728961101468,723.7037037037037" fill="rgb(245, 198, 112)"/></g><g id="[object Object]"><polygon points="626.7457922202937,777.9814814814814,642.414437025801,768.9351851851851,658.0830818313084,777.9814814814814,658.0830818313084,796.074074074074,642.414437025801,805.1203703703703,626.7457922202937,796.074074074074,626.7457922202937,777.9814814814814" fill="rgb(245, 190, 112)"/></g><g id="[object Object]"><polygon points="642.414437025801,750.8425925925925,658.0830818313084,741.7962962962962,673.7517266368158,750.8425925925925,673.7517266368158,768.9351851851851,658.0830818313084,777.9814814814814,642.414437025801,768.9351851851851,642.414437025801,750.8425925925925" fill="rgb(245, 183, 112)"/></g><g id="[object Object]"><polygon points="595.4085026092789,723.7037037037037,611.0771474147863,714.6574074074074,626.7457922202937,723.7037037037037,626.7457922202937,741.7962962962963,611.0771474147863,750.8425925925926,595.4085026092789,741.7962962962963,595.4085026092789,723.7037037037037" fill="rgb(245, 176, 112)"/></g><g id="[object Object]"><polygon points="548.4025681927569,750.8425925925925,564.0712129982643,741.7962962962962,579.7398578037717,750.8425925925925,579.7398578037717,768.9351851851851,564.0712129982643,777.9814814814814,548.4025681927569,768.9351851851851,548.4025681927569,750.8425925925925" fill="rgb(245, 169, 112)"/></g><g id="[object Object]"><polygon points="611.0771474147863,696.5648148148148,626.7457922202937,687.5185185185185,642.414437025801,696.5648148148148,642.414437025801,714.6574074074074,626.7457922202937,723.7037037037037,611.0771474147863,714.6574074074074,611.0771474147863,696.5648148148148" fill="rgb(245, 162, 112)"/></g><g id="[object Object]"><polygon points="611.0771474147863,750.8425925925925,626.7457922202937,741.7962962962962,642.414437025801,750.8425925925925,642.414437025801,768.9351851851851,626.7457922202937,777.9814814814814,611.0771474147863,768.9351851851851,611.0771474147863,750.8425925925925" fill="rgb(245, 155, 112)"/></g><g id="[object Object]"><polygon points="564.0712129982643,777.9814814814814,579.7398578037717,768.9351851851851,595.408502609279,777.9814814814814,595.408502609279,796.074074074074,579.7398578037717,805.1203703703703,564.0712129982643,796.074074074074,564.0712129982643,777.9814814814814" fill="rgb(245, 148, 112)"/></g><g id="[object Object]"><polygon points="532.7339233872495,777.9814814814814,548.4025681927569,768.9351851851851,564.0712129982643,777.9814814814814,564.0712129982643,796.074074074074,548.4025681927569,805.1203703703703,532.7339233872495,796.074074074074,532.7339233872495,777.9814814814814" fill="rgb(245, 140, 112)"/></g><g id="[object Object]"><polygon points="579.7398578037715,750.8425925925925,595.4085026092789,741.7962962962962,611.0771474147863,750.8425925925925,611.0771474147863,768.9351851851851,595.4085026092789,777.9814814814814,579.7398578037715,768.9351851851851,579.7398578037715,750.8425925925925" fill="rgb(245, 133, 112)"/></g><g id="[object Object]"><polygon points="595.4085026092789,777.9814814814814,611.0771474147863,768.9351851851851,626.7457922202937,777.9814814814814,626.7457922202937,796.074074074074,611.0771474147863,805.1203703703703,595.4085026092789,796.074074074074,595.4085026092789,777.9814814814814" fill="rgb(245, 126, 112)"/></g><g id="[object Object]"><polygon points="611.0771474147863,805.1203703703703,626.7457922202937,796.074074074074,642.414437025801,805.1203703703703,642.414437025801,823.2129629629629,626.7457922202937,832.2592592592592,611.0771474147863,823.2129629629629,611.0771474147863,805.1203703703703" fill="rgb(245, 119, 112)"/></g><g id="[object Object]"><polygon points="579.7398578037715,805.1203703703703,595.4085026092789,796.074074074074,611.0771474147863,805.1203703703703,611.0771474147863,823.2129629629629,595.4085026092789,832.2592592592592,579.7398578037715,823.2129629629629,579.7398578037715,805.1203703703703" fill="rgb(112, 245, 245)"/></g><g id="[object Object]"><polygon points="642.414437025801,805.1203703703703,658.0830818313084,796.074074074074,673.7517266368158,805.1203703703703,673.7517266368158,823.2129629629629,658.0830818313084,832.2592592592592,642.414437025801,823.2129629629629,642.414437025801,805.1203703703703" fill="rgb(112, 245, 238)"/></g><g id="[object Object]"><polygon points="564.0712129982643,832.2592592592592,579.7398578037717,823.2129629629629,595.408502609279,832.2592592592592,595.408502609279,850.3518518518518,579.7398578037717,859.3981481481482,564.0712129982643,850.3518518518518,564.0712129982643,832.2592592592592" fill="rgb(112, 245, 231)"/></g><g id="[object Object]"><polygon points="689.420371442323,669.4259259259259,705.0890162478304,660.3796296296296,720.7576610533378,669.4259259259259,720.7576610533378,687.5185185185185,705.0890162478304,696.5648148148148,689.420371442323,687.5185185185185,689.420371442323,669.4259259259259" fill="rgb(112, 245, 224)"/></g><g id="[object Object]"><polygon points="626.7457922202937,723.7037037037037,642.414437025801,714.6574074074074,658.0830818313084,723.7037037037037,658.0830818313084,741.7962962962963,642.414437025801,750.8425925925926,626.7457922202937,741.7962962962963,626.7457922202937,723.7037037037037" fill="rgb(112, 245, 217)"/></g><g id="[object Object]"><polygon points="673.7517266368156,696.5648148148148,689.420371442323,687.5185185185185,705.0890162478304,696.5648148148148,705.0890162478304,714.6574074074074,689.420371442323,723.7037037037037,673.7517266368156,714.6574074074074,673.7517266368156,696.5648148148148" fill="rgb(112, 245, 209)"/></g><g id="[object Object]"><polygon points="658.0830818313083,723.7037037037037,673.7517266368156,714.6574074074074,689.420371442323,723.7037037037037,689.420371442323,741.7962962962963,673.7517266368156,750.8425925925926,658.0830818313083,741.7962962962963,658.0830818313083,723.7037037037037" fill="rgb(112, 245, 202)"/></g><g id="[object Object]"><polygon points="658.0830818313083,669.4259259259259,673.7517266368156,660.3796296296296,689.420371442323,669.4259259259259,689.420371442323,687.5185185185185,673.7517266368156,696.5648148148148,658.0830818313083,687.5185185185185,658.0830818313083,669.4259259259259" fill="rgb(112, 245, 195)"/></g><g id="[object Object]"><polygon points="626.7457922202937,669.4259259259259,642.414437025801,660.3796296296296,658.0830818313084,669.4259259259259,658.0830818313084,687.5185185185185,642.414437025801,696.5648148148148,626.7457922202937,687.5185185185185,626.7457922202937,669.4259259259259" fill="rgb(112, 245, 188)"/></g><g id="[object Object]"><polygon points="642.414437025801,696.5648148148148,658.0830818313084,687.5185185185185,673.7517266368158,696.5648148148148,673.7517266368158,714.6574074074074,658.0830818313084,723.7037037037037,642.414437025801,714.6574074074074,642.414437025801,696.5648148148148" fill="rgb(112, 245, 181)"/></g><g id="[object Object]"><polygon points="642.414437025801,642.287037037037,658.0830818313084,633.2407407407406,673.7517266368158,642.287037037037,673.7517266368158,660.3796296296296,658.0830818313084,669.4259259259259,642.414437025801,660.3796296296296,642.414437025801,642.287037037037" fill="rgb(112, 245, 174)"/></g><g id="[object Object]"><polygon points="626.7457922202937,615.1481481481482,642.414437025801,606.1018518518518,658.0830818313084,615.1481481481482,658.0830818313084,633.2407407407408,642.414437025801,642.2870370370371,626.7457922202937,633.2407407407408,626.7457922202937,615.1481481481482" fill="rgb(112, 245, 167)"/></g><g id="[object Object]"><polygon points="532.7339233872495,615.1481481481482,548.4025681927569,606.1018518518518,564.0712129982643,615.1481481481482,564.0712129982643,633.2407407407408,548.4025681927569,642.2870370370371,532.7339233872495,633.2407407407408,532.7339233872495,615.1481481481482" fill="rgb(112, 245, 159)"/></g><g id="[object Object]"><polygon points="564.0712129982643,615.1481481481482,579.7398578037717,606.1018518518518,595.408502609279,615.1481481481482,595.408502609279,633.2407407407408,579.7398578037717,642.2870370370371,564.0712129982643,633.2407407407408,564.0712129982643,615.1481481481482" fill="rgb(112, 245, 152)"/></g><g id="[object Object]"><polygon points="564.0712129982643,560.8703703703703,579.7398578037717,551.824074074074,595.408502609279,560.8703703703703,595.408502609279,578.9629629629629,579.7398578037717,588.0092592592592,564.0712129982643,578.9629629629629,564.0712129982643,560.8703703703703" fill="rgb(112, 245, 145)"/></g><g id="[object Object]"><polygon points="595.4085026092789,560.8703703703703,611.0771474147863,551.824074074074,626.7457922202937,560.8703703703703,626.7457922202937,578.9629629629629,611.0771474147863,588.0092592592592,595.4085026092789,578.9629629629629,595.4085026092789,560.8703703703703" fill="rgb(112, 245, 138)"/></g><g id="[object Object]"><polygon points="579.7398578037715,588.0092592592592,595.4085026092789,578.9629629629629,611.0771474147863,588.0092592592592,611.0771474147863,606.1018518518518,595.4085026092789,615.1481481481482,579.7398578037715,606.1018518518518,579.7398578037715,588.0092592592592" fill="rgb(112, 245, 131)"/></g><g id="[object Object]"><polygon points="564.0712129982643,669.4259259259259,579.7398578037717,660.3796296296296,595.408502609279,669.4259259259259,595.408502609279,687.5185185185185,579.7398578037717,696.5648148148148,564.0712129982643,687.5185185185185,564.0712129982643,669.4259259259259" fill="rgb(112, 245, 124)"/></g><g id="[object Object]"><polygon points="579.7398578037715,642.287037037037,595.4085026092789,633.2407407407406,611.0771474147863,642.287037037037,611.0771474147863,660.3796296296296,595.4085026092789,669.4259259259259,579.7398578037715,660.3796296296296,579.7398578037715,642.287037037037" fill="rgb(112, 245, 117)"/></g><g id="[object Object]"><polygon points="548.4025681927569,642.287037037037,564.0712129982643,633.2407407407406,579.7398578037717,642.287037037037,579.7398578037717,660.3796296296296,564.0712129982643,669.4259259259259,548.4025681927569,660.3796296296296,548.4025681927569,642.287037037037" fill="rgb(114, 245, 112)"/></g><g id="[object Object]"><polygon points="595.4085026092789,615.1481481481482,611.0771474147863,606.1018518518518,626.7457922202937,615.1481481481482,626.7457922202937,633.2407407407408,611.0771474147863,642.2870370370371,595.4085026092789,633.2407407407408,595.4085026092789,615.1481481481482" fill="rgb(121, 245, 112)"/></g><g id="[object Object]"><polygon points="611.0771474147863,642.287037037037,626.7457922202937,633.2407407407406,642.414437025801,642.287037037037,642.414437025801,660.3796296296296,626.7457922202937,669.4259259259259,611.0771474147863,660.3796296296296,611.0771474147863,642.287037037037" fill="rgb(129, 245, 112)"/></g><g id="[object Object]"><polygon points="595.4085026092789,669.4259259259259,611.0771474147863,660.3796296296296,626.7457922202937,669.4259259259259,626.7457922202937,687.5185185185185,611.0771474147863,696.5648148148148,595.4085026092789,687.5185185185185,595.4085026092789,669.4259259259259" fill="rgb(136, 245, 112)"/></g><g id="[object Object]"><polygon points="470.0593441652202,615.1481481481482,485.72798897072755,606.1018518518518,501.3966337762349,615.1481481481482,501.3966337762349,633.2407407407408,485.72798897072755,642.2870370370371,470.0593441652202,633.2407407407408,470.0593441652202,615.1481481481482" fill="rgb(143, 245, 112)"/></g><g id="[object Object]"><polygon points="532.7339233872495,560.8703703703703,548.4025681927569,551.824074074074,564.0712129982643,560.8703703703703,564.0712129982643,578.9629629629629,548.4025681927569,588.0092592592592,532.7339233872495,578.9629629629629,532.7339233872495,560.8703703703703" fill="rgb(150, 245, 112)"/></g><g id="[object Object]"><polygon points="517.0652785817423,588.0092592592592,532.7339233872497,578.9629629629629,548.402568192757,588.0092592592592,548.402568192757,606.1018518518518,532.7339233872497,615.1481481481482,517.0652785817423,606.1018518518518,517.0652785817423,588.0092592592592" fill="rgb(157, 245, 112)"/></g><g id="[object Object]"><polygon points="548.4025681927569,588.0092592592592,564.0712129982643,578.9629629629629,579.7398578037717,588.0092592592592,579.7398578037717,606.1018518518518,564.0712129982643,615.1481481481482,548.4025681927569,606.1018518518518,548.4025681927569,588.0092592592592" fill="rgb(164, 245, 112)"/></g><g id="[object Object]"><polygon points="501.3966337762349,615.1481481481482,517.0652785817423,606.1018518518518,532.7339233872497,615.1481481481482,532.7339233872497,633.2407407407408,517.0652785817423,642.2870370370371,501.3966337762349,633.2407407407408,501.3966337762349,615.1481481481482" fill="rgb(171, 245, 112)"/></g><g id="[object Object]"><polygon points="564.0712129982643,723.7037037037037,579.7398578037717,714.6574074074074,595.408502609279,723.7037037037037,595.408502609279,741.7962962962963,579.7398578037717,750.8425925925926,564.0712129982643,741.7962962962963,564.0712129982643,723.7037037037037" fill="rgb(179, 245, 112)"/></g><g id="[object Object]"><polygon points="517.0652785817423,750.8425925925925,532.7339233872497,741.7962962962962,548.402568192757,750.8425925925925,548.402568192757,768.9351851851851,532.7339233872497,777.9814814814814,517.0652785817423,768.9351851851851,517.0652785817423,750.8425925925925" fill="rgb(186, 245, 112)"/></g><g id="[object Object]"><polygon points="579.7398578037715,696.5648148148148,595.4085026092789,687.5185185185185,611.0771474147863,696.5648148148148,611.0771474147863,714.6574074074074,595.4085026092789,723.7037037037037,579.7398578037715,714.6574074074074,579.7398578037715,696.5648148148148" fill="rgb(193, 245, 112)"/></g><g id="[object Object]"><polygon points="501.3966337762349,777.9814814814814,517.0652785817423,768.9351851851851,532.7339233872497,777.9814814814814,532.7339233872497,796.074074074074,517.0652785817423,805.1203703703703,501.3966337762349,796.074074074074,501.3966337762349,777.9814814814814" fill="rgb(200, 245, 112)"/></g><g id="[object Object]"><polygon points="532.7339233872495,832.2592592592592,548.4025681927569,823.2129629629629,564.0712129982643,832.2592592592592,564.0712129982643,850.3518518518518,548.4025681927569,859.3981481481482,532.7339233872495,850.3518518518518,532.7339233872495,832.2592592592592" fill="rgb(207, 245, 112)"/></g><g id="[object Object]"><polygon points="548.4025681927569,805.1203703703703,564.0712129982643,796.074074074074,579.7398578037717,805.1203703703703,579.7398578037717,823.2129629629629,564.0712129982643,832.2592592592592,548.4025681927569,823.2129629629629,548.4025681927569,805.1203703703703" fill="rgb(214, 245, 112)"/></g><g id="[object Object]"><polygon points="423.0534097486982,750.8425925925925,438.72205455420556,741.7962962962962,454.3906993597129,750.8425925925925,454.3906993597129,768.9351851851851,438.72205455420556,777.9814814814814,423.0534097486982,768.9351851851851,423.0534097486982,750.8425925925925" fill="rgb(221, 245, 112)"/></g><g id="[object Object]"><polygon points="407.3847649431908,777.9814814814814,423.0534097486982,768.9351851851851,438.72205455420556,777.9814814814814,438.72205455420556,796.074074074074,423.0534097486982,805.1203703703703,407.3847649431908,796.074074074074,407.3847649431908,777.9814814814814" fill="rgb(228, 245, 112)"/></g><g id="[object Object]"><polygon points="360.3788305266688,750.8425925925925,376.0474753321762,741.7962962962962,391.71612013768356,750.8425925925925,391.71612013768356,768.9351851851851,376.0474753321762,777.9814814814814,360.3788305266688,768.9351851851851,360.3788305266688,750.8425925925925" fill="rgb(236, 245, 112)"/></g><g id="[object Object]"><polygon points="438.72205455420556,777.9814814814814,454.3906993597129,768.9351851851851,470.0593441652203,777.9814814814814,470.0593441652203,796.074074074074,454.3906993597129,805.1203703703703,438.72205455420556,796.074074074074,438.72205455420556,777.9814814814814" fill="rgb(243, 245, 112)"/></g><g id="[object Object]"><polygon points="485.72798897072755,750.8425925925925,501.3966337762349,741.7962962962962,517.0652785817423,750.8425925925925,517.0652785817423,768.9351851851851,501.3966337762349,777.9814814814814,485.72798897072755,768.9351851851851,485.72798897072755,750.8425925925925" fill="rgb(245, 240, 112)"/></g><g id="[object Object]"><polygon points="532.7339233872495,723.7037037037037,548.4025681927569,714.6574074074074,564.0712129982643,723.7037037037037,564.0712129982643,741.7962962962963,548.4025681927569,750.8425925925926,532.7339233872495,741.7962962962963,532.7339233872495,723.7037037037037" fill="rgb(245, 233, 112)"/></g><g id="[object Object]"><polygon points="501.3966337762349,723.7037037037037,517.0652785817423,714.6574074074074,532.7339233872497,723.7037037037037,532.7339233872497,741.7962962962963,517.0652785817423,750.8425925925926,501.3966337762349,741.7962962962963,501.3966337762349,723.7037037037037" fill="rgb(245, 226, 112)"/></g><g id="[object Object]"><polygon points="454.3906993597129,750.8425925925925,470.05934416522024,741.7962962962962,485.72798897072755,750.8425925925925,485.72798897072755,768.9351851851851,470.05934416522024,777.9814814814814,454.3906993597129,768.9351851851851,454.3906993597129,750.8425925925925" fill="rgb(245, 219, 112)"/></g><g id="[object Object]"><polygon points="470.0593441652202,723.7037037037037,485.72798897072755,714.6574074074074,501.3966337762349,723.7037037037037,501.3966337762349,741.7962962962963,485.72798897072755,750.8425925925926,470.0593441652202,741.7962962962963,470.0593441652202,723.7037037037037" fill="rgb(245, 212, 112)"/></g><g id="[object Object]"><polygon points="438.72205455420556,723.7037037037037,454.3906993597129,714.6574074074074,470.0593441652203,723.7037037037037,470.0593441652203,741.7962962962963,454.3906993597129,750.8425925925926,438.72205455420556,741.7962962962963,438.72205455420556,723.7037037037037" fill="rgb(245, 205, 112)"/></g><g id="[object Object]"><polygon points="532.7339233872495,669.4259259259259,548.4025681927569,660.3796296296296,564.0712129982643,669.4259259259259,564.0712129982643,687.5185185185185,548.4025681927569,696.5648148148148,532.7339233872495,687.5185185185185,532.7339233872495,669.4259259259259" fill="rgb(245, 198, 112)"/></g><g id="[object Object]"><polygon points="517.0652785817423,696.5648148148148,532.7339233872497,687.5185185185185,548.402568192757,696.5648148148148,548.402568192757,714.6574074074074,532.7339233872497,723.7037037037037,517.0652785817423,714.6574074074074,517.0652785817423,696.5648148148148" fill="rgb(245, 190, 112)"/></g><g id="[object Object]"><polygon points="548.4025681927569,696.5648148148148,564.0712129982643,687.5185185185185,579.7398578037717,696.5648148148148,579.7398578037717,714.6574074074074,564.0712129982643,723.7037037037037,548.4025681927569,714.6574074074074,548.4025681927569,696.5648148148148" fill="rgb(245, 183, 112)"/></g><g id="[object Object]"><polygon points="344.71018572116145,723.7037037037037,360.3788305266688,714.6574074074074,376.0474753321762,723.7037037037037,376.0474753321762,741.7962962962963,360.3788305266688,750.8425925925926,344.71018572116145,741.7962962962963,344.71018572116145,723.7037037037037" fill="rgb(245, 176, 112)"/></g><g id="[object Object]"><polygon points="376.0474753321762,723.7037037037037,391.71612013768356,714.6574074074074,407.38476494319093,723.7037037037037,407.38476494319093,741.7962962962963,391.71612013768356,750.8425925925926,376.0474753321762,741.7962962962963,376.0474753321762,723.7037037037037" fill="rgb(245, 169, 112)"/></g><g id="[object Object]"><polygon points="329.0415409156542,750.8425925925925,344.7101857211615,741.7962962962962,360.3788305266688,750.8425925925925,360.3788305266688,768.9351851851851,344.7101857211615,777.9814814814814,329.0415409156542,768.9351851851851,329.0415409156542,750.8425925925925" fill="rgb(245, 162, 112)"/></g><g id="[object Object]"><polygon points="454.3906993597129,696.5648148148148,470.05934416522024,687.5185185185185,485.72798897072755,696.5648148148148,485.72798897072755,714.6574074074074,470.05934416522024,723.7037037037037,454.3906993597129,714.6574074074074,454.3906993597129,696.5648148148148" fill="rgb(245, 155, 112)"/></g><g id="[object Object]"><polygon points="423.0534097486982,696.5648148148148,438.72205455420556,687.5185185185185,454.3906993597129,696.5648148148148,454.3906993597129,714.6574074074074,438.72205455420556,723.7037037037037,423.0534097486982,714.6574074074074,423.0534097486982,696.5648148148148" fill="rgb(245, 148, 112)"/></g><g id="[object Object]"><polygon points="517.0652785817423,642.287037037037,532.7339233872497,633.2407407407406,548.402568192757,642.287037037037,548.402568192757,660.3796296296296,532.7339233872497,669.4259259259259,517.0652785817423,660.3796296296296,517.0652785817423,642.287037037037" fill="rgb(245, 140, 112)"/></g><g id="[object Object]"><polygon points="391.71612013768356,696.5648148148148,407.3847649431909,687.5185185185185,423.0534097486982,696.5648148148148,423.0534097486982,714.6574074074074,407.3847649431909,723.7037037037037,391.71612013768356,714.6574074074074,391.71612013768356,696.5648148148148" fill="rgb(245, 133, 112)"/></g><g id="[object Object]"><polygon points="407.3847649431908,723.7037037037037,423.0534097486982,714.6574074074074,438.72205455420556,723.7037037037037,438.72205455420556,741.7962962962963,423.0534097486982,750.8425925925926,407.3847649431908,741.7962962962963,407.3847649431908,723.7037037037037" fill="rgb(245, 126, 112)"/></g><g id="[object Object]"><polygon points="391.71612013768356,750.8425925925925,407.3847649431909,741.7962962962962,423.0534097486982,750.8425925925925,423.0534097486982,768.9351851851851,407.3847649431909,777.9814814814814,391.71612013768356,768.9351851851851,391.71612013768356,750.8425925925925" fill="rgb(245, 119, 112)"/></g><g id="[object Object]"><polygon points="344.71018572116145,777.9814814814814,360.3788305266688,768.9351851851851,376.0474753321762,777.9814814814814,376.0474753321762,796.074074074074,360.3788305266688,805.1203703703703,344.71018572116145,796.074074074074,344.71018572116145,777.9814814814814" fill="rgb(112, 245, 245)"/></g><g id="[object Object]"><polygon points="282.0356064991321,832.2592592592592,297.70425130463946,823.2129629629629,313.3728961101468,832.2592592592592,313.3728961101468,850.3518518518518,297.70425130463946,859.3981481481482,282.0356064991321,850.3518518518518,282.0356064991321,832.2592592592592" fill="rgb(112, 245, 238)"/></g><g id="[object Object]"><polygon points="313.3728961101468,832.2592592592592,329.0415409156542,823.2129629629629,344.71018572116157,832.2592592592592,344.71018572116157,850.3518518518518,329.0415409156542,859.3981481481482,313.3728961101468,850.3518518518518,313.3728961101468,832.2592592592592" fill="rgb(112, 245, 231)"/></g><g id="[object Object]"><polygon points="297.70425130463946,805.1203703703703,313.3728961101468,796.074074074074,329.0415409156542,805.1203703703703,329.0415409156542,823.2129629629629,313.3728961101468,832.2592592592592,297.70425130463946,823.2129629629629,297.70425130463946,805.1203703703703" fill="rgb(112, 245, 224)"/></g><g id="[object Object]"><polygon points="313.3728961101468,777.9814814814814,329.0415409156542,768.9351851851851,344.71018572116157,777.9814814814814,344.71018572116157,796.074074074074,329.0415409156542,805.1203703703703,313.3728961101468,796.074074074074,313.3728961101468,777.9814814814814" fill="rgb(112, 245, 217)"/></g><g id="[object Object]"><polygon points="360.3788305266688,805.1203703703703,376.0474753321762,796.074074074074,391.71612013768356,805.1203703703703,391.71612013768356,823.2129629629629,376.0474753321762,832.2592592592592,360.3788305266688,823.2129629629629,360.3788305266688,805.1203703703703" fill="rgb(112, 245, 209)"/></g><g id="[object Object]"><polygon points="329.0415409156542,805.1203703703703,344.7101857211615,796.074074074074,360.3788305266688,805.1203703703703,360.3788305266688,823.2129629629629,344.7101857211615,832.2592592592592,329.0415409156542,823.2129629629629,329.0415409156542,805.1203703703703" fill="rgb(112, 245, 202)"/></g><g id="[object Object]"><polygon points="376.0474753321762,832.2592592592592,391.71612013768356,823.2129629629629,407.38476494319093,832.2592592592592,407.38476494319093,850.3518518518518,391.71612013768356,859.3981481481482,376.0474753321762,850.3518518518518,376.0474753321762,832.2592592592592" fill="rgb(112, 245, 195)"/></g><g id="[object Object]"><polygon points="344.71018572116145,832.2592592592592,360.3788305266688,823.2129629629629,376.0474753321762,832.2592592592592,376.0474753321762,850.3518518518518,360.3788305266688,859.3981481481482,344.71018572116145,850.3518518518518,344.71018572116145,832.2592592592592" fill="rgb(112, 245, 188)"/></g><g id="[object Object]"><polygon points="470.0593441652202,777.9814814814814,485.72798897072755,768.9351851851851,501.3966337762349,777.9814814814814,501.3966337762349,796.074074074074,485.72798897072755,805.1203703703703,470.0593441652202,796.074074074074,470.0593441652202,777.9814814814814" fill="rgb(112, 245, 181)"/></g><g id="[object Object]"><polygon points="376.0474753321762,777.9814814814814,391.71612013768356,768.9351851851851,407.38476494319093,777.9814814814814,407.38476494319093,796.074074074074,391.71612013768356,805.1203703703703,376.0474753321762,796.074074074074,376.0474753321762,777.9814814814814" fill="rgb(112, 245, 174)"/></g><g id="[object Object]"><polygon points="485.72798897072755,805.1203703703703,501.3966337762349,796.074074074074,517.0652785817423,805.1203703703703,517.0652785817423,823.2129629629629,501.3966337762349,832.2592592592592,485.72798897072755,823.2129629629629,485.72798897072755,805.1203703703703" fill="rgb(112, 245, 167)"/></g><g id="[object Object]"><polygon points="517.0652785817423,805.1203703703703,532.7339233872497,796.074074074074,548.402568192757,805.1203703703703,548.402568192757,823.2129629629629,532.7339233872497,832.2592592592592,517.0652785817423,823.2129629629629,517.0652785817423,805.1203703703703" fill="rgb(112, 245, 159)"/></g><g id="[object Object]"><polygon points="454.3906993597129,805.1203703703703,470.05934416522024,796.074074074074,485.72798897072755,805.1203703703703,485.72798897072755,823.2129629629629,470.05934416522024,832.2592592592592,454.3906993597129,823.2129629629629,454.3906993597129,805.1203703703703" fill="rgb(112, 245, 152)"/></g><g id="[object Object]"><polygon points="470.0593441652202,832.2592592592592,485.72798897072755,823.2129629629629,501.3966337762349,832.2592592592592,501.3966337762349,850.3518518518518,485.72798897072755,859.3981481481482,470.0593441652202,850.3518518518518,470.0593441652202,832.2592592592592" fill="rgb(112, 245, 145)"/></g><g id="[object Object]"><polygon points="391.71612013768356,805.1203703703703,407.3847649431909,796.074074074074,423.0534097486982,805.1203703703703,423.0534097486982,823.2129629629629,407.3847649431909,832.2592592592592,391.71612013768356,823.2129629629629,391.71612013768356,805.1203703703703" fill="rgb(112, 245, 138)"/></g><g id="[object Object]"><polygon points="266.36696169362483,696.5648148148148,282.03560649913214,687.5185185185185,297.70425130463946,696.5648148148148,297.70425130463946,714.6574074074074,282.03560649913214,723.7037037037037,266.36696169362483,714.6574074074074,266.36696169362483,696.5648148148148" fill="rgb(112, 245, 131)"/></g><g id="[object Object]"><polygon points="282.0356064991321,669.4259259259259,297.70425130463946,660.3796296296296,313.3728961101468,669.4259259259259,313.3728961101468,687.5185185185185,297.70425130463946,696.5648148148148,282.0356064991321,687.5185185185185,282.0356064991321,669.4259259259259" fill="rgb(112, 245, 124)"/></g><g id="[object Object]"><polygon points="313.3728961101468,669.4259259259259,329.0415409156542,660.3796296296296,344.71018572116157,669.4259259259259,344.71018572116157,687.5185185185185,329.0415409156542,696.5648148148148,313.3728961101468,687.5185185185185,313.3728961101468,669.4259259259259" fill="rgb(112, 245, 117)"/></g><g id="[object Object]"><polygon points="297.70425130463946,696.5648148148148,313.3728961101468,687.5185185185185,329.0415409156542,696.5648148148148,329.0415409156542,714.6574074074074,313.3728961101468,723.7037037037037,297.70425130463946,714.6574074074074,297.70425130463946,696.5648148148148" fill="rgb(114, 245, 112)"/></g></svg>